<svg viewBox="0 0 330 200" xmlns="http://www.w3.org/2000/svg"><g><g><g><g><g><line x1="50" y1="178" x2="45" y2="178" style="visibility: inherit;" fill="rgb(0, 0, 0)" stroke="rgb(204, 204, 204)" stroke-width="1px"></line><line x1="50" y1="163.16666666666666" x2="45" y2="163.16666666666666" style="visibility: inherit;" fill="rgb(0, 0, 0)" stroke="rgb(204, 204, 204)" stroke-width="1px"></line><line x1="50" y1="148.33333333333334" x2="45" y2="148.33333333333334" style="visibility: inherit;" fill="rgb(0, 0, 0)" stroke="rgb(204, 204, 204)" stroke-width="1px"></line><line x1="50" y1="133.5" x2="45" y2="133.5" style="visibility: inherit;" fill="rgb(0, 0, 0)" stroke="rgb(204, 204, 204)" stroke-width="1px"></line><line x1="50" y1="118.66666666666669" x2="45" y2="118.66666666666669" style="visibility: inherit;" fill="rgb(0, 0, 0)" stroke="rgb(204, 204, 204)" stroke-width="1px"></line><line x1="50" y1="103.83333333333334" x2="45" y2="103.83333333333334" style="visibility: inherit;" fill="rgb(0, 0, 0)" stroke="rgb(204, 204, 204)" stroke-width="1px"></line><line x1="50" y1="89.00000000000001" x2="45" y2="89.00000000000001" style="visibility: inherit;" fill="rgb(0, 0, 0)" stroke="rgb(204, 204, 204)" stroke-width="1px"></line><line x1="50" y1="74.16666666666669" x2="45" y2="74.16666666666669" style="visibility: inherit;" fill="rgb(0, 0, 0)" stroke="rgb(204, 204, 204)" stroke-width="1px"></line><line x1="50" y1="59.33333333333336" x2="45" y2="59.33333333333336" style="visibility: inherit;" fill="rgb(0, 0, 0)" stroke="rgb(204, 204, 204)" stroke-width="1px"></line><line x1="50" y1="44.50000000000002" x2="45" y2="44.50000000000002" style="visibility: inherit;" fill="rgb(0, 0, 0)" stroke="rgb(204, 204, 204)" stroke-width="1px"></line><line x1="50" y1="29.66666666666668" x2="45" y2="29.66666666666668" style="visibility: inherit;" fill="rgb(0, 0, 0)" stroke="rgb(204, 204, 204)" stroke-width="1px"></line><line x1="50" y1="14.83333333333334" x2="45" y2="14.83333333333334" style="visibility: inherit;" fill="rgb(0, 0, 0)" stroke="rgb(204, 204, 204)" stroke-width="1px"></line><line x1="50" y1="0" x2="45" y2="0" style="visibility: inherit;" fill="rgb(0, 0, 0)" stroke="rgb(204, 204, 204)" stroke-width="1px"></line></g><g transform="translate(40, 0)"><text x="0" y="178" dx="0em" dy="0.3em" style="text-anchor: end; visibility: hidden; font-family: Roboto, sans-serif; font-size: 12px; font-weight: 200;" fill="rgb(50, 49, 63)" stroke="none" stroke-width="1px">-0.1</text><text x="0" y="163.16666666666666" dx="0em" dy="0.3em" style="text-anchor: end; visibility: inherit; font-family: Roboto, sans-serif; font-size: 12px; font-weight: 200;" fill="rgb(50, 49, 63)" stroke="none" stroke-width="1px">0</text><text x="0" y="148.33333333333334" dx="0em" dy="0.3em" style="text-anchor: end; visibility: hidden; font-family: Roboto, sans-serif; font-size: 12px; font-weight: 200;" fill="rgb(50, 49, 63)" stroke="none" stroke-width="1px">0.1</text><text x="0" y="133.5" dx="0em" dy="0.3em" style="text-anchor: end; visibility: inherit; font-family: Roboto, sans-serif; font-size: 12px; font-weight: 200;" fill="rgb(50, 49, 63)" stroke="none" stroke-width="1px">0.2</text><text x="0" y="118.66666666666669" dx="0em" dy="0.3em" style="text-anchor: end; visibility: hidden; font-family: Roboto, sans-serif; font-size: 12px; font-weight: 200;" fill="rgb(50, 49, 63)" stroke="none" stroke-width="1px">0.3</text><text x="0" y="103.83333333333334" dx="0em" dy="0.3em" style="text-anchor: end; visibility: inherit; font-family: Roboto, sans-serif; font-size: 12px; font-weight: 200;" fill="rgb(50, 49, 63)" stroke="none" stroke-width="1px">0.4</text><text x="0" y="89.00000000000001" dx="0em" dy="0.3em" style="text-anchor: end; visibility: hidden; font-family: Roboto, sans-serif; font-size: 12px; font-weight: 200;" fill="rgb(50, 49, 63)" stroke="none" stroke-width="1px">0.5</text><text x="0" y="74.16666666666669" dx="0em" dy="0.3em" style="text-anchor: end; visibility: inherit; font-family: Roboto, sans-serif; font-size: 12px; font-weight: 200;" fill="rgb(50, 49, 63)" stroke="none" stroke-width="1px">0.6</text><text x="0" y="59.33333333333336" dx="0em" dy="0.3em" style="text-anchor: end; visibility: hidden; font-family: Roboto, sans-serif; font-size: 12px; font-weight: 200;" fill="rgb(50, 49, 63)" stroke="none" stroke-width="1px">0.7</text><text x="0" y="44.50000000000002" dx="0em" dy="0.3em" style="text-anchor: end; visibility: inherit; font-family: Roboto, sans-serif; font-size: 12px; font-weight: 200;" fill="rgb(50, 49, 63)" stroke="none" stroke-width="1px">0.8</text><text x="0" y="29.66666666666668" dx="0em" dy="0.3em" style="text-anchor: end; visibility: hidden; font-family: Roboto, sans-serif; font-size: 12px; font-weight: 200;" fill="rgb(50, 49, 63)" stroke="none" stroke-width="1px">0.9</text><text x="0" y="14.83333333333334" dx="0em" dy="0.3em" style="text-anchor: end; visibility: inherit; font-family: Roboto, sans-serif; font-size: 12px; font-weight: 200;" fill="rgb(50, 49, 63)" stroke="none" stroke-width="1px">1</text><text x="0" y="0" dx="0em" dy="0.3em" style="text-anchor: end; visibility: hidden; font-family: Roboto, sans-serif; font-size: 12px; font-weight: 200;" fill="rgb(50, 49, 63)" stroke="none" stroke-width="1px">1.1</text></g><line x1="50" y1="0" x2="50" y2="178" fill="rgb(0, 0, 0)" stroke="rgb(204, 204, 204)" stroke-width="1px"></line></g></g><g transform="translate(50, 0)" clip-path="url(#clip_0)"><clipPath id="clip_0"><rect width="280" height="177"></rect></clipPath><g><g><g><line x1="0" y1="0" x2="0" y2="178" fill="rgb(0, 0, 0)" stroke="rgb(60, 60, 60)" stroke-width="1px" opacity="0.25"></line><line x1="21.53846153846154" y1="0" x2="21.53846153846154" y2="178" fill="rgb(0, 0, 0)" stroke="rgb(60, 60, 60)" stroke-width="1px" opacity="0.25"></line><line x1="43.07692307692308" y1="0" x2="43.07692307692308" y2="178" fill="rgb(0, 0, 0)" stroke="rgb(60, 60, 60)" stroke-width="1px" opacity="0.25"></line><line x1="64.61538461538461" y1="0" x2="64.61538461538461" y2="178" fill="rgb(0, 0, 0)" stroke="rgb(60, 60, 60)" stroke-width="1px" opacity="0.25"></line><line x1="86.15384615384616" y1="0" x2="86.15384615384616" y2="178" fill="rgb(0, 0, 0)" stroke="rgb(60, 60, 60)" stroke-width="1px" opacity="0.25"></line><line x1="107.6923076923077" y1="0" x2="107.6923076923077" y2="178" fill="rgb(0, 0, 0)" stroke="rgb(60, 60, 60)" stroke-width="1px" opacity="0.25"></line><line x1="129.23076923076923" y1="0" x2="129.23076923076923" y2="178" fill="rgb(0, 0, 0)" stroke="rgb(60, 60, 60)" stroke-width="1px" opacity="0.25"></line><line x1="150.76923076923077" y1="0" x2="150.76923076923077" y2="178" fill="rgb(0, 0, 0)" stroke="rgb(60, 60, 60)" stroke-width="1px" opacity="0.25"></line><line x1="172.30769230769232" y1="0" x2="172.30769230769232" y2="178" fill="rgb(0, 0, 0)" stroke="rgb(60, 60, 60)" stroke-width="1px" opacity="0.25"></line><line x1="193.84615384615384" y1="0" x2="193.84615384615384" y2="178" fill="rgb(0, 0, 0)" stroke="rgb(60, 60, 60)" stroke-width="1px" opacity="0.25"></line><line x1="215.3846153846154" y1="0" x2="215.3846153846154" y2="178" fill="rgb(0, 0, 0)" stroke="rgb(60, 60, 60)" stroke-width="1px" opacity="0.25"></line><line x1="236.92307692307693" y1="0" x2="236.92307692307693" y2="178" fill="rgb(0, 0, 0)" stroke="rgb(60, 60, 60)" stroke-width="1px" opacity="0.25"></line><line x1="258.46153846153845" y1="0" x2="258.46153846153845" y2="178" fill="rgb(0, 0, 0)" stroke="rgb(60, 60, 60)" stroke-width="1px" opacity="0.25"></line><line x1="280" y1="0" x2="280" y2="178" fill="rgb(0, 0, 0)" stroke="rgb(60, 60, 60)" stroke-width="1px" opacity="0.25"></line></g><g><line x1="0" y1="178" x2="280" y2="178" fill="rgb(0, 0, 0)" stroke="rgb(60, 60, 60)" stroke-width="1px" opacity="0.25"></line><line x1="0" y1="163.16666666666666" x2="280" y2="163.16666666666666" fill="rgb(0, 0, 0)" stroke="rgb(60, 60, 60)" stroke-width="1px" opacity="0.25"></line><line x1="0" y1="148.33333333333334" x2="280" y2="148.33333333333334" fill="rgb(0, 0, 0)" stroke="rgb(60, 60, 60)" stroke-width="1px" opacity="0.25"></line><line x1="0" y1="133.5" x2="280" y2="133.5" fill="rgb(0, 0, 0)" stroke="rgb(60, 60, 60)" stroke-width="1px" opacity="0.25"></line><line x1="0" y1="118.66666666666669" x2="280" y2="118.66666666666669" fill="rgb(0, 0, 0)" stroke="rgb(60, 60, 60)" stroke-width="1px" opacity="0.25"></line><line x1="0" y1="103.83333333333334" x2="280" y2="103.83333333333334" fill="rgb(0, 0, 0)" stroke="rgb(60, 60, 60)" stroke-width="1px" opacity="0.25"></line><line x1="0" y1="89.00000000000001" x2="280" y2="89.00000000000001" fill="rgb(0, 0, 0)" stroke="rgb(60, 60, 60)" stroke-width="1px" opacity="0.25"></line><line x1="0" y1="74.16666666666669" x2="280" y2="74.16666666666669" fill="rgb(0, 0, 0)" stroke="rgb(60, 60, 60)" stroke-width="1px" opacity="0.25"></line><line x1="0" y1="59.33333333333336" x2="280" y2="59.33333333333336" fill="rgb(0, 0, 0)" stroke="rgb(60, 60, 60)" stroke-width="1px" opacity="0.25"></line><line x1="0" y1="44.50000000000002" x2="280" y2="44.50000000000002" fill="rgb(0, 0, 0)" stroke="rgb(60, 60, 60)" stroke-width="1px" opacity="0.25"></line><line x1="0" y1="29.66666666666668" x2="280" y2="29.66666666666668" fill="rgb(0, 0, 0)" stroke="rgb(60, 60, 60)" stroke-width="1px" opacity="0.25"></line><line x1="0" y1="14.83333333333334" x2="280" y2="14.83333333333334" fill="rgb(0, 0, 0)" stroke="rgb(60, 60, 60)" stroke-width="1px" opacity="0.25"></line><line x1="0" y1="0" x2="280" y2="0" fill="rgb(0, 0, 0)" stroke="rgb(60, 60, 60)" stroke-width="1px" opacity="0.25"></line></g></g></g><g><g><line x1="0" y1="163.16666666666666" x2="280" y2="163.16666666666666" fill="rgb(0, 0, 0)" stroke="rgb(153, 153, 153)" stroke-width="1.5px"></line></g></g><g><g><line x1="21.53846153846154" y1="0" x2="21.53846153846154" y2="178" fill="rgb(0, 0, 0)" stroke="rgb(153, 153, 153)" stroke-width="1.5px"></line></g></g><g><g><g><g><g><path stroke="rgb(255, 112, 67)" stroke-width="2px" d="M21.53846153846154,123.11666507522267L22.615384615384617,115.69999995579325L23.692307692307693,114.94319626486221L24.76923076923077,122.78946068322324L25.846153846153847,115.85440691157388L26.923076923076923,115.78962196485527L28,115.14231871940883L29.07692307692308,116.57613988063892L30.153846153846157,117.35641403111636L31.230769230769234,120.8684174939528L32.30769230769231,114.02957234719396L33.38461538461539,114.10457255607362L34.46153846153847,117.71412388828172L35.53846153846153,113.93884892070835L36.61538461538462,118.79892782188152L37.69230769230769,114.59150278269257L38.769230769230774,116.81527857568678L39.84615384615385,105.36900855117244L40.92307692307693,97.63426827179777L42,87.65352853598361L43.07692307692308,87.59878315315687L44.15384615384615,91.12598369148371L45.23076923076923,97.39564001118444L46.30769230769231,97.59738510411754L47.38461538461539,92.37841792233681L48.46153846153846,88.65370979324206L49.53846153846154,80.81730799358095L50.61538461538461,81.71705074218684L51.69230769230769,91.15690143892358L52.76923076923077,93.2608087024483L53.84615384615385,89.77648645683361L54.92307692307692,83.53255662921674L56,82.75286656632319L57.07692307692307,95.33838618901127L58.15384615384616,96.95636465016923L59.23076923076923,92.81683041274887L60.307692307692314,87.1367653035491L61.38461538461539,83.72872626052651L62.46153846153847,83.46390114923736L63.53846153846154,82.71167331456178L64.61538461538461,78.10700370212052L65.6923076923077,82.46420222336913L66.76923076923077,83.29852303180266L67.84615384615384,79.64577907049856L68.92307692307693,75.41255757997658L70,74.32086703248106L71.07692307692307,75.4458545430959L72.15384615384615,78.49417811943746L73.23076923076924,79.13650673020943L74.3076923076923,81.30190573568346L75.38461538461539,74.29447578447758L76.46153846153845,71.2766868852947L77.53846153846155,69.46601354579056L78.61538461538461,71.21867493490517L79.6923076923077,69.4312063755589L80.76923076923076,75.47872552287792L81.84615384615385,81.48056808121468L82.92307692307692,70.84167305036718L84,72.1716690822702L85.07692307692307,65.84966641848818L86.15384615384616,63.83646665922121L87.23076923076923,62.03521403617449L88.3076923076923,61.65625390776072L89.38461538461537,58.94708454629623L90.46153846153847,58.50825200093297L91.53846153846153,57.651616169686164L92.61538461538461,57.137634670938084L93.69230769230768,56.23591300420268L94.76923076923077,53.32154893421513L95.84615384615385,51.57293049222261L96.92307692307692,48.74375758802511L98,53.04338781576724L99.07692307692308,51.99936658864043L100.15384615384616,45.43961910441411L101.23076923076923,46.25043982685544L102.3076923076923,54.45026531073018L103.38461538461539,46.91015833766797L104.46153846153847,52.472761810729146L105.53846153846153,49.8769891466156L106.61538461538461,43.57285987171265L107.6923076923077,41.00894745289923L108.76923076923077,51.30536988635646L109.84615384615384,47.39655568953228L110.92307692307692,44.45793440395121L112,43.28809440008912L113.07692307692308,41.39952486279875L114.15384615384615,37.29971576644938L115.23076923076923,38.99316321758805L116.30769230769232,40.00923168827124L117.38461538461539,41.422742971792005L118.46153846153847,40.28031400582047L119.53846153846153,52.05485535308233L120.61538461538463,50.812914343542936L121.6923076923077,56.59441371671383L122.76923076923077,45.82331631131188L123.84615384615384,48.853989220940385L124.92307692307693,45.925727290282644L126,50.69543764732481L127.07692307692308,47.196474324120295L128.15384615384616,44.337885584704L129.23076923076923,45.58939971502937L130.30769230769232,36.25364053632608L131.3846153846154,37.17885254454092L132.46153846153845,40.107310819416135L133.53846153846155,43.05105485585664L134.6153846153846,46.003966812694074L135.69230769230768,41.84237923884632L136.76923076923077,39.97065907317943L137.84615384615387,38.8157273626241L138.92307692307693,36.93610280131775L140,38.181662671022515L141.07692307692307,37.742329521329964L142.15384615384613,38.07206593554324L143.23076923076923,35.89657317758266L144.3076923076923,36.96461212929488L145.3846153846154,39.97876657026848L146.46153846153848,35.02453459686744L147.53846153846155,34.66138714186375L148.6153846153846,33.25683313388839L149.69230769230768,33.60076626407634L150.76923076923077,32.027127839729374L151.84615384615384,33.45627585506749L152.9230769230769,34.90709743175693L154,35.18425761028402L155.0769230769231,40.097222930377356L156.15384615384616,39.56156104774415L157.23076923076923,37.97693577987635L158.3076923076923,42.9594953671059L159.3846153846154,48.32236218938993L160.46153846153845,42.64008369737724L161.53846153846152,43.97738227860448L162.61538461538464,38.25309744844627L163.6923076923077,44.90519067070757L164.76923076923077,38.2164461796793L165.84615384615384,36.51911479147152L166.92307692307693,37.931469865114735L168,37.5922138377853L169.07692307692307,36.79532745390104L170.15384615384613,34.53719732111078L171.23076923076925,36.14898661541174L172.30769230769232,32.36939097901522L173.3846153846154,30.694966364663866L174.46153846153845,29.690311596053064L175.53846153846155,28.85146161233817L176.6153846153846,33.92421072512131L177.69230769230768,32.814527283842935L178.76923076923075,28.58871707761422L179.84615384615387,31.986562165284965L180.92307692307693,32.2452709154277L182,35.36716353948845L183.07692307692307,31.306964365974686L184.15384615384616,33.61751053830125L185.23076923076923,36.949718058706154L186.3076923076923,34.03649891650726L187.38461538461536,31.6952311271591L188.46153846153848,29.69713768606365L189.53846153846155,33.838283601870025L190.6153846153846,35.13630207983846L191.6923076923077,31.76178025767126L192.76923076923077,33.29706730583262L193.84615384615384,26.504906484319466L194.9230769230769,25.026241875986504L196,26.289076902846634L197.0769230769231,24.673446849016464L198.15384615384616,26.07739988666463L199.23076923076923,27.513108013282324L200.30769230769232,24.81453274779126L201.3846153846154,25.56871865844294L202.46153846153845,25.427897437347347L203.53846153846152,30.683406685153695L204.6153846153846,26.895349773383188L205.6923076923077,26.81720887379807L206.76923076923077,29.143658940535573L207.84615384615387,28.166194374089518L208.92307692307693,25.206384564275616L210,26.990498819848913L211.07692307692307,26.280965534190955L212.15384615384613,28.228580169284708L213.23076923076923,29.39714895034098L214.3076923076923,26.123595132495545L215.3846153846154,25.167490554292364L216.46153846153848,24.593827807370456L217.53846153846155,23.65629739173073L218.6153846153846,23.687111909833455L219.69230769230768,23.705600620695105L220.76923076923077,26.09002845370063L221.84615384615384,23.36734870801345L222.9230769230769,25.2937410020628L224,23.023558140424797L225.0769230769231,23.900801126536503L226.15384615384616,24.427146918203483L227.23076923076923,21.776287019228594L228.3076923076923,22.55910568633217L229.3846153846154,24.808795189054052L230.46153846153845,23.785277820740887L231.53846153846152,26.137834773728102L232.61538461538464,23.396032500029914L233.6923076923077,21.884933039205073L234.76923076923077,22.62429329831808L235.84615384615384,23.661242221272428L236.92307692307693,21.910076968556535L238,22.63937965592895L239.07692307692307,23.076961268352402L240.15384615384613,20.96617562931792L241.23076923076925,22.073038852385768L242.30769230769232,21.550491251253348L243.3846153846154,20.77760828993911L244.46153846153845,20.773232913785375L245.53846153846155,22.55060599055282L246.6153846153846,21.837031534153578L247.69230769230768,22.0022196278006L248.76923076923075,21.507999716502248L249.84615384615387,19.431465930721238L250.92307692307693,17.5922128917661L252,19.455328442368117L253.07692307692307,22.072479497023345L254.15384615384616,23.33015394049559L255.23076923076923,23.491425839092372L256.3076923076923,22.401523443277313" style="fill: none;" fill="none"></path></g></g></g></g><g opacity="0.2"><g><g><g><path stroke="rgb(255, 112, 67)" stroke-width="2px" d="M21.53846153846154,123.11666507522267L22.615384615384617,111.25000088413559L23.692307692307693,114.21666472156845L24.76923076923077,132.0166676392158L25.846153846153847,106.80000070730847L26.923076923076923,115.70000106096268L28,114.21666472156845L29.07692307692308,118.66666489839554L30.153846153846157,118.5071668426196L31.230769230769234,126.08333333333334L32.30769230769231,103.83333244919777L33.38461538461539,114.21666472156845L34.46153846153847,123.11666507522267L35.53846153846153,108.2833326260249L36.61538461538462,126.08333333333334L37.69230769230769,108.2833326260249L38.769230769230774,120.15000123778981L39.84615384615385,88.20250972112022L40.92307692307693,86.03333616256715L42,72.683331211408L43.07692307692308,87.51666808128358L44.15384615384615,96.41666843493782L45.23076923076923,106.80000070730847L46.30769230769231,97.90000035365425L47.38461538461539,84.55000424385072L48.46153846153846,83.06666348377865L49.53846153846154,69.0627253452937L50.61538461538461,83.06666348377865L51.69230769230769,105.31666878859204L52.76923076923077,96.41666843493782L53.84615384615385,84.55000424385072L54.92307692307692,74.16666313012443L56,81.58333156506222L57.07692307692307,114.21666472156845L58.15384615384616,99.38333227237068L59.23076923076923,86.60752916336061L60.307692307692314,78.61666772762936L61.38461538461539,78.61666772762936L62.46153846153847,83.06666348377865L63.53846153846154,81.58333156506222L64.61538461538461,71.19999929269157L65.6923076923077,89.00000000000001L66.76923076923077,84.55000424385072L67.84615384615384,74.16666313012443L68.92307692307693,69.0627253452937L70,72.683331211408L71.07692307692307,77.13333580891293L72.15384615384615,83.06666348377865L73.23076923076924,80.0999996463458L74.3076923076923,84.55000424385072L75.38461538461539,63.783330857753775L76.46153846153845,66.75000353654228L77.53846153846155,66.75000353654228L78.61538461538461,73.84766701857251L79.6923076923077,66.75000353654228L80.76923076923076,84.55000424385072L81.84615384615385,90.48333191871644L82.92307692307692,54.88333050409954L84,74.16666313012443L85.07692307692307,56.36666242281597L86.15384615384616,60.816667020320914L87.23076923076923,59.33333510160448L88.3076923076923,61.08781371514004L89.38461538461537,54.88333050409954L90.46153846153847,57.85000318288805L91.53846153846153,56.36666242281597L92.61538461538461,56.36666242281597L93.69230769230768,54.88333050409954L94.76923076923077,48.95000282923382L95.84615384615385,48.95000282923382L96.92307692307692,44.499998231728895L98,59.492833157380446L99.07692307692308,50.43333474795025L100.15384615384616,35.59999787807467L101.23076923076923,47.46667091051739L102.3076923076923,66.75000353654228L103.38461538461539,35.59999787807467L104.46153846153847,60.816667020320914L105.53846153846153,45.983330150445326L106.61538461538461,34.11666595935824L107.6923076923077,37.16307882467909L108.76923076923077,66.75000353654228L109.84615384615384,41.533334394296034L110.92307692307692,40.0500024755796L112,41.533334394296034L113.07692307692308,38.56667055686317L114.15384615384615,31.150002121925375L115.23076923076923,41.533334394296034L116.30769230769232,41.533334394296034L117.38461538461539,43.543009897073134L118.46153846153847,38.56667055686317L119.53846153846153,69.71666737397514L120.61538461538463,48.95000282923382L121.6923076923077,65.2666627764702L122.76923076923077,29.666670203208945L123.84615384615384,53.39999858538311L124.92307692307693,41.533334394296034L126,57.85000318288805L127.07692307692308,41.94802933931353L128.15384615384616,40.0500024755796L129.23076923076923,47.46667091051739L130.30769230769232,22.25000176827114L131.3846153846154,38.56667055686317L132.46153846153845,44.499998231728895L133.53846153846155,47.46667091051739L134.6153846153846,50.43333474795025L135.69230769230768,35.59999787807467L136.76923076923077,37.16307882467909L137.84615384615387,37.0833297967911L138.92307692307693,34.11666595935824L140,40.0500024755796L141.07692307692307,37.0833297967911L142.15384615384613,38.56667055686317L143.23076923076923,32.633334040641806L144.3076923076923,38.56667055686317L145.3846153846154,44.499998231728895L146.46153846153848,27.593186636765804L147.53846153846155,34.11666595935824L148.6153846153846,31.150002121925375L149.69230769230768,34.11666595935824L150.76923076923077,29.666670203208945L151.84615384615384,35.59999787807467L152.9230769230769,37.0833297967911L154,35.59999787807467L155.0769230769231,47.46667091051739L156.15384615384616,38.758068223794325L157.23076923076923,35.59999787807467L158.3076923076923,50.43333474795025L159.3846153846154,56.36666242281597L160.46153846153845,34.11666595935824L161.53846153846152,45.983330150445326L162.61538461538464,29.666670203208945L163.6923076923077,54.88333050409954L164.76923076923077,28.183329443136863L165.84615384615384,33.97311770915987L166.92307692307693,40.0500024755796L168,37.0833297967911L169.07692307692307,35.59999787807467L170.15384615384613,31.150002121925375L171.23076923076925,38.56667055686317L172.30769230769232,26.699997524420432L173.3846153846154,28.183329443136863L174.46153846153845,28.183329443136863L175.53846153846155,27.593186636765804L176.6153846153846,41.533334394296034L177.69230769230768,31.150002121925375L178.76923076923075,22.25000176827114L179.84615384615387,37.0833297967911L180.92307692307693,32.633334040641806L182,40.0500024755796L183.07692307692307,25.216665605704L184.15384615384616,37.0833297967911L185.23076923076923,41.94802933931353L186.3076923076923,29.666670203208945L187.38461538461536,28.183329443136863L188.46153846153848,26.699997524420432L189.53846153846155,40.0500024755796L190.6153846153846,37.0833297967911L191.6923076923077,26.699997524420432L192.76923076923077,35.59999787807467L193.84615384615384,16.31666525204977L194.9230769230769,22.808244963486995L196,28.183329443136863L197.0769230769231,22.25000176827114L198.15384615384616,28.183329443136863L199.23076923076923,29.666670203208945L200.30769230769232,20.76666984955471L201.3846153846154,26.699997524420432L202.46153846153845,25.216665605704L203.53846153846152,38.56667055686317L204.6153846153846,21.213264405727408L205.6923076923077,26.699997524420432L206.76923076923077,32.633334040641806L207.84615384615387,26.699997524420432L208.92307692307693,20.76666984955471L210,29.666670203208945L211.07692307692307,25.216665605704L212.15384615384613,31.150002121925375L213.23076923076923,31.150002121925375L214.3076923076923,21.213264405727408L215.3846153846154,23.73333368698757L216.46153846153848,23.73333368698757L217.53846153846155,22.25000176827114L218.6153846153846,23.73333368698757L219.69230769230768,23.73333368698757L220.76923076923077,29.666670203208945L221.84615384615384,19.28332908948263L222.9230769230769,28.183329443136863L224,19.618283847967795L225.0769230769231,25.216665605704L226.15384615384616,25.216665605704L227.23076923076923,17.7999971707662L228.3076923076923,23.73333368698757L229.3846153846154,28.183329443136863L230.46153846153845,22.25000176827114L231.53846153846152,29.666670203208945L232.61538461538464,19.28332908948263L233.6923076923077,19.618283847967795L234.76923076923077,23.73333368698757L235.84615384615384,25.216665605704L236.92307692307693,19.28332908948263L238,23.73333368698757L239.07692307692307,23.73333368698757L240.15384615384613,17.7999971707662L241.23076923076925,23.73333368698757L242.30769230769232,20.76666984955471L243.3846153846154,19.618283847967795L244.46153846153845,20.76666984955471L245.53846153846155,25.216665605704L246.6153846153846,20.76666984955471L247.69230769230768,22.25000176827114L248.76923076923075,20.76666984955471L249.84615384615387,16.31666525204977L250.92307692307693,14.83333333333334L252,22.25000176827114L253.07692307692307,25.998206079006195L254.15384615384616,25.216665605704L255.23076923076923,23.73333368698757L256.3076923076923,20.76666984955471" style="fill: none;" fill="none"></path></g></g></g></g></g></g><g transform="translate(50, 178)" clip-path="url(#clip_1)"><clipPath id="clip_1"><rect width="280" height="21"></rect></clipPath><g><g><line x1="0" y1="0" x2="0" y2="5" style="visibility: inherit;" fill="rgb(0, 0, 0)" stroke="rgb(204, 204, 204)" stroke-width="1px"></line><line x1="21.53846153846154" y1="0" x2="21.53846153846154" y2="5" style="visibility: inherit;" fill="rgb(0, 0, 0)" stroke="rgb(204, 204, 204)" stroke-width="1px"></line><line x1="43.07692307692308" y1="0" x2="43.07692307692308" y2="5" style="visibility: inherit;" fill="rgb(0, 0, 0)" stroke="rgb(204, 204, 204)" stroke-width="1px"></line><line x1="64.61538461538461" y1="0" x2="64.61538461538461" y2="5" style="visibility: inherit;" fill="rgb(0, 0, 0)" stroke="rgb(204, 204, 204)" stroke-width="1px"></line><line x1="86.15384615384616" y1="0" x2="86.15384615384616" y2="5" style="visibility: inherit;" fill="rgb(0, 0, 0)" stroke="rgb(204, 204, 204)" stroke-width="1px"></line><line x1="107.6923076923077" y1="0" x2="107.6923076923077" y2="5" style="visibility: inherit;" fill="rgb(0, 0, 0)" stroke="rgb(204, 204, 204)" stroke-width="1px"></line><line x1="129.23076923076923" y1="0" x2="129.23076923076923" y2="5" style="visibility: inherit;" fill="rgb(0, 0, 0)" stroke="rgb(204, 204, 204)" stroke-width="1px"></line><line x1="150.76923076923077" y1="0" x2="150.76923076923077" y2="5" style="visibility: inherit;" fill="rgb(0, 0, 0)" stroke="rgb(204, 204, 204)" stroke-width="1px"></line><line x1="172.30769230769232" y1="0" x2="172.30769230769232" y2="5" style="visibility: inherit;" fill="rgb(0, 0, 0)" stroke="rgb(204, 204, 204)" stroke-width="1px"></line><line x1="193.84615384615384" y1="0" x2="193.84615384615384" y2="5" style="visibility: inherit;" fill="rgb(0, 0, 0)" stroke="rgb(204, 204, 204)" stroke-width="1px"></line><line x1="215.3846153846154" y1="0" x2="215.3846153846154" y2="5" style="visibility: inherit;" fill="rgb(0, 0, 0)" stroke="rgb(204, 204, 204)" stroke-width="1px"></line><line x1="236.92307692307693" y1="0" x2="236.92307692307693" y2="5" style="visibility: inherit;" fill="rgb(0, 0, 0)" stroke="rgb(204, 204, 204)" stroke-width="1px"></line><line x1="258.46153846153845" y1="0" x2="258.46153846153845" y2="5" style="visibility: inherit;" fill="rgb(0, 0, 0)" stroke="rgb(204, 204, 204)" stroke-width="1px"></line><line x1="280" y1="0" x2="280" y2="5" style="visibility: inherit;" fill="rgb(0, 0, 0)" stroke="rgb(204, 204, 204)" stroke-width="1px"></line></g><g transform="translate(0, 8)"><text x="0" y="0" dx="0em" dy="0.95em" style="text-anchor: middle; visibility: hidden; font-family: Roboto, sans-serif; font-size: 12px; font-weight: 200;" fill="rgb(50, 49, 63)" stroke="none" stroke-width="1px">-20</text><text x="21.53846153846154" y="0" dx="0em" dy="0.95em" style="text-anchor: middle; visibility: inherit; font-family: Roboto, sans-serif; font-size: 12px; font-weight: 200;" fill="rgb(50, 49, 63)" stroke="none" stroke-width="1px">0</text><text x="43.07692307692308" y="0" dx="0em" dy="0.95em" style="text-anchor: middle; visibility: hidden; font-family: Roboto, sans-serif; font-size: 12px; font-weight: 200;" fill="rgb(50, 49, 63)" stroke="none" stroke-width="1px">20</text><text x="64.61538461538461" y="0" dx="0em" dy="0.95em" style="text-anchor: middle; visibility: inherit; font-family: Roboto, sans-serif; font-size: 12px; font-weight: 200;" fill="rgb(50, 49, 63)" stroke="none" stroke-width="1px">40</text><text x="86.15384615384616" y="0" dx="0em" dy="0.95em" style="text-anchor: middle; visibility: hidden; font-family: Roboto, sans-serif; font-size: 12px; font-weight: 200;" fill="rgb(50, 49, 63)" stroke="none" stroke-width="1px">60</text><text x="107.6923076923077" y="0" dx="0em" dy="0.95em" style="text-anchor: middle; visibility: inherit; font-family: Roboto, sans-serif; font-size: 12px; font-weight: 200;" fill="rgb(50, 49, 63)" stroke="none" stroke-width="1px">80</text><text x="129.23076923076923" y="0" dx="0em" dy="0.95em" style="text-anchor: middle; visibility: hidden; font-family: Roboto, sans-serif; font-size: 12px; font-weight: 200;" fill="rgb(50, 49, 63)" stroke="none" stroke-width="1px">100</text><text x="150.76923076923077" y="0" dx="0em" dy="0.95em" style="text-anchor: middle; visibility: inherit; font-family: Roboto, sans-serif; font-size: 12px; font-weight: 200;" fill="rgb(50, 49, 63)" stroke="none" stroke-width="1px">120</text><text x="172.30769230769232" y="0" dx="0em" dy="0.95em" style="text-anchor: middle; visibility: hidden; font-family: Roboto, sans-serif; font-size: 12px; font-weight: 200;" fill="rgb(50, 49, 63)" stroke="none" stroke-width="1px">140</text><text x="193.84615384615384" y="0" dx="0em" dy="0.95em" style="text-anchor: middle; visibility: inherit; font-family: Roboto, sans-serif; font-size: 12px; font-weight: 200;" fill="rgb(50, 49, 63)" stroke="none" stroke-width="1px">160</text><text x="215.3846153846154" y="0" dx="0em" dy="0.95em" style="text-anchor: middle; visibility: hidden; font-family: Roboto, sans-serif; font-size: 12px; font-weight: 200;" fill="rgb(50, 49, 63)" stroke="none" stroke-width="1px">180</text><text x="236.92307692307693" y="0" dx="0em" dy="0.95em" style="text-anchor: middle; visibility: inherit; font-family: Roboto, sans-serif; font-size: 12px; font-weight: 200;" fill="rgb(50, 49, 63)" stroke="none" stroke-width="1px">200</text><text x="258.46153846153845" y="0" dx="0em" dy="0.95em" style="text-anchor: middle; visibility: hidden; font-family: Roboto, sans-serif; font-size: 12px; font-weight: 200;" fill="rgb(50, 49, 63)" stroke="none" stroke-width="1px">220</text><text x="280" y="0" dx="0em" dy="0.95em" style="text-anchor: middle; visibility: hidden; font-family: Roboto, sans-serif; font-size: 12px; font-weight: 200;" fill="rgb(50, 49, 63)" stroke="none" stroke-width="1px">240</text></g><line x1="0" y1="0" x2="280" y2="0" fill="rgb(0, 0, 0)" stroke="rgb(204, 204, 204)" stroke-width="1px"></line></g></g></g></g></svg>