<svg viewBox="0 0 330 200" xmlns="http://www.w3.org/2000/svg"><g><g><g><g><g><line x1="50" y1="178" x2="45" y2="178" style="visibility: inherit;" fill="rgb(0, 0, 0)" stroke="rgb(204, 204, 204)" stroke-width="1px"></line><line x1="50" y1="164.30769230769232" x2="45" y2="164.30769230769232" style="visibility: inherit;" fill="rgb(0, 0, 0)" stroke="rgb(204, 204, 204)" stroke-width="1px"></line><line x1="50" y1="150.6153846153846" x2="45" y2="150.6153846153846" style="visibility: inherit;" fill="rgb(0, 0, 0)" stroke="rgb(204, 204, 204)" stroke-width="1px"></line><line x1="50" y1="136.9230769230769" x2="45" y2="136.9230769230769" style="visibility: inherit;" fill="rgb(0, 0, 0)" stroke="rgb(204, 204, 204)" stroke-width="1px"></line><line x1="50" y1="123.23076923076923" x2="45" y2="123.23076923076923" style="visibility: inherit;" fill="rgb(0, 0, 0)" stroke="rgb(204, 204, 204)" stroke-width="1px"></line><line x1="50" y1="109.53846153846155" x2="45" y2="109.53846153846155" style="visibility: inherit;" fill="rgb(0, 0, 0)" stroke="rgb(204, 204, 204)" stroke-width="1px"></line><line x1="50" y1="95.84615384615387" x2="45" y2="95.84615384615387" style="visibility: inherit;" fill="rgb(0, 0, 0)" stroke="rgb(204, 204, 204)" stroke-width="1px"></line><line x1="50" y1="82.15384615384616" x2="45" y2="82.15384615384616" style="visibility: inherit;" fill="rgb(0, 0, 0)" stroke="rgb(204, 204, 204)" stroke-width="1px"></line><line x1="50" y1="68.46153846153848" x2="45" y2="68.46153846153848" style="visibility: inherit;" fill="rgb(0, 0, 0)" stroke="rgb(204, 204, 204)" stroke-width="1px"></line><line x1="50" y1="54.769230769230774" x2="45" y2="54.769230769230774" style="visibility: inherit;" fill="rgb(0, 0, 0)" stroke="rgb(204, 204, 204)" stroke-width="1px"></line><line x1="50" y1="41.07692307692309" x2="45" y2="41.07692307692309" style="visibility: inherit;" fill="rgb(0, 0, 0)" stroke="rgb(204, 204, 204)" stroke-width="1px"></line><line x1="50" y1="27.384615384615387" x2="45" y2="27.384615384615387" style="visibility: inherit;" fill="rgb(0, 0, 0)" stroke="rgb(204, 204, 204)" stroke-width="1px"></line><line x1="50" y1="13.692307692307683" x2="45" y2="13.692307692307683" style="visibility: inherit;" fill="rgb(0, 0, 0)" stroke="rgb(204, 204, 204)" stroke-width="1px"></line><line x1="50" y1="0" x2="45" y2="0" style="visibility: inherit;" fill="rgb(0, 0, 0)" stroke="rgb(204, 204, 204)" stroke-width="1px"></line></g><g transform="translate(40, 0)"><text x="0" y="178" dx="0em" dy="0.3em" style="text-anchor: end; visibility: hidden; font-family: Roboto, sans-serif; font-size: 12px; font-weight: 200;" fill="rgb(50, 49, 63)" stroke="none" stroke-width="1px">-0.1</text><text x="0" y="164.30769230769232" dx="0em" dy="0.3em" style="text-anchor: end; visibility: inherit; font-family: Roboto, sans-serif; font-size: 12px; font-weight: 200;" fill="rgb(50, 49, 63)" stroke="none" stroke-width="1px">0</text><text x="0" y="150.6153846153846" dx="0em" dy="0.3em" style="text-anchor: end; visibility: hidden; font-family: Roboto, sans-serif; font-size: 12px; font-weight: 200;" fill="rgb(50, 49, 63)" stroke="none" stroke-width="1px">0.1</text><text x="0" y="136.9230769230769" dx="0em" dy="0.3em" style="text-anchor: end; visibility: inherit; font-family: Roboto, sans-serif; font-size: 12px; font-weight: 200;" fill="rgb(50, 49, 63)" stroke="none" stroke-width="1px">0.2</text><text x="0" y="123.23076923076923" dx="0em" dy="0.3em" style="text-anchor: end; visibility: hidden; font-family: Roboto, sans-serif; font-size: 12px; font-weight: 200;" fill="rgb(50, 49, 63)" stroke="none" stroke-width="1px">0.3</text><text x="0" y="109.53846153846155" dx="0em" dy="0.3em" style="text-anchor: end; visibility: inherit; font-family: Roboto, sans-serif; font-size: 12px; font-weight: 200;" fill="rgb(50, 49, 63)" stroke="none" stroke-width="1px">0.4</text><text x="0" y="95.84615384615387" dx="0em" dy="0.3em" style="text-anchor: end; visibility: hidden; font-family: Roboto, sans-serif; font-size: 12px; font-weight: 200;" fill="rgb(50, 49, 63)" stroke="none" stroke-width="1px">0.5</text><text x="0" y="82.15384615384616" dx="0em" dy="0.3em" style="text-anchor: end; visibility: inherit; font-family: Roboto, sans-serif; font-size: 12px; font-weight: 200;" fill="rgb(50, 49, 63)" stroke="none" stroke-width="1px">0.6</text><text x="0" y="68.46153846153848" dx="0em" dy="0.3em" style="text-anchor: end; visibility: hidden; font-family: Roboto, sans-serif; font-size: 12px; font-weight: 200;" fill="rgb(50, 49, 63)" stroke="none" stroke-width="1px">0.7</text><text x="0" y="54.769230769230774" dx="0em" dy="0.3em" style="text-anchor: end; visibility: inherit; font-family: Roboto, sans-serif; font-size: 12px; font-weight: 200;" fill="rgb(50, 49, 63)" stroke="none" stroke-width="1px">0.8</text><text x="0" y="41.07692307692309" dx="0em" dy="0.3em" style="text-anchor: end; visibility: hidden; font-family: Roboto, sans-serif; font-size: 12px; font-weight: 200;" fill="rgb(50, 49, 63)" stroke="none" stroke-width="1px">0.9</text><text x="0" y="27.384615384615387" dx="0em" dy="0.3em" style="text-anchor: end; visibility: inherit; font-family: Roboto, sans-serif; font-size: 12px; font-weight: 200;" fill="rgb(50, 49, 63)" stroke="none" stroke-width="1px">1</text><text x="0" y="13.692307692307683" dx="0em" dy="0.3em" style="text-anchor: end; visibility: hidden; font-family: Roboto, sans-serif; font-size: 12px; font-weight: 200;" fill="rgb(50, 49, 63)" stroke="none" stroke-width="1px">1.1</text><text x="0" y="0" dx="0em" dy="0.3em" style="text-anchor: end; visibility: hidden; font-family: Roboto, sans-serif; font-size: 12px; font-weight: 200;" fill="rgb(50, 49, 63)" stroke="none" stroke-width="1px">1.2</text></g><line x1="50" y1="0" x2="50" y2="178" fill="rgb(0, 0, 0)" stroke="rgb(204, 204, 204)" stroke-width="1px"></line></g></g><g transform="translate(50, 0)" clip-path="url(#clip_0)"><clipPath id="clip_0"><rect width="280" height="177"></rect></clipPath><g><g><g><line x1="0" y1="0" x2="0" y2="178" fill="rgb(0, 0, 0)" stroke="rgb(60, 60, 60)" stroke-width="1px" opacity="0.25"></line><line x1="31.11111111111111" y1="0" x2="31.11111111111111" y2="178" fill="rgb(0, 0, 0)" stroke="rgb(60, 60, 60)" stroke-width="1px" opacity="0.25"></line><line x1="62.22222222222222" y1="0" x2="62.22222222222222" y2="178" fill="rgb(0, 0, 0)" stroke="rgb(60, 60, 60)" stroke-width="1px" opacity="0.25"></line><line x1="93.33333333333333" y1="0" x2="93.33333333333333" y2="178" fill="rgb(0, 0, 0)" stroke="rgb(60, 60, 60)" stroke-width="1px" opacity="0.25"></line><line x1="124.44444444444444" y1="0" x2="124.44444444444444" y2="178" fill="rgb(0, 0, 0)" stroke="rgb(60, 60, 60)" stroke-width="1px" opacity="0.25"></line><line x1="155.55555555555557" y1="0" x2="155.55555555555557" y2="178" fill="rgb(0, 0, 0)" stroke="rgb(60, 60, 60)" stroke-width="1px" opacity="0.25"></line><line x1="186.66666666666666" y1="0" x2="186.66666666666666" y2="178" fill="rgb(0, 0, 0)" stroke="rgb(60, 60, 60)" stroke-width="1px" opacity="0.25"></line><line x1="217.77777777777777" y1="0" x2="217.77777777777777" y2="178" fill="rgb(0, 0, 0)" stroke="rgb(60, 60, 60)" stroke-width="1px" opacity="0.25"></line><line x1="248.88888888888889" y1="0" x2="248.88888888888889" y2="178" fill="rgb(0, 0, 0)" stroke="rgb(60, 60, 60)" stroke-width="1px" opacity="0.25"></line><line x1="280" y1="0" x2="280" y2="178" fill="rgb(0, 0, 0)" stroke="rgb(60, 60, 60)" stroke-width="1px" opacity="0.25"></line></g><g><line x1="0" y1="178" x2="280" y2="178" fill="rgb(0, 0, 0)" stroke="rgb(60, 60, 60)" stroke-width="1px" opacity="0.25"></line><line x1="0" y1="164.30769230769232" x2="280" y2="164.30769230769232" fill="rgb(0, 0, 0)" stroke="rgb(60, 60, 60)" stroke-width="1px" opacity="0.25"></line><line x1="0" y1="150.6153846153846" x2="280" y2="150.6153846153846" fill="rgb(0, 0, 0)" stroke="rgb(60, 60, 60)" stroke-width="1px" opacity="0.25"></line><line x1="0" y1="136.9230769230769" x2="280" y2="136.9230769230769" fill="rgb(0, 0, 0)" stroke="rgb(60, 60, 60)" stroke-width="1px" opacity="0.25"></line><line x1="0" y1="123.23076923076923" x2="280" y2="123.23076923076923" fill="rgb(0, 0, 0)" stroke="rgb(60, 60, 60)" stroke-width="1px" opacity="0.25"></line><line x1="0" y1="109.53846153846155" x2="280" y2="109.53846153846155" fill="rgb(0, 0, 0)" stroke="rgb(60, 60, 60)" stroke-width="1px" opacity="0.25"></line><line x1="0" y1="95.84615384615387" x2="280" y2="95.84615384615387" fill="rgb(0, 0, 0)" stroke="rgb(60, 60, 60)" stroke-width="1px" opacity="0.25"></line><line x1="0" y1="82.15384615384616" x2="280" y2="82.15384615384616" fill="rgb(0, 0, 0)" stroke="rgb(60, 60, 60)" stroke-width="1px" opacity="0.25"></line><line x1="0" y1="68.46153846153848" x2="280" y2="68.46153846153848" fill="rgb(0, 0, 0)" stroke="rgb(60, 60, 60)" stroke-width="1px" opacity="0.25"></line><line x1="0" y1="54.769230769230774" x2="280" y2="54.769230769230774" fill="rgb(0, 0, 0)" stroke="rgb(60, 60, 60)" stroke-width="1px" opacity="0.25"></line><line x1="0" y1="41.07692307692309" x2="280" y2="41.07692307692309" fill="rgb(0, 0, 0)" stroke="rgb(60, 60, 60)" stroke-width="1px" opacity="0.25"></line><line x1="0" y1="27.384615384615387" x2="280" y2="27.384615384615387" fill="rgb(0, 0, 0)" stroke="rgb(60, 60, 60)" stroke-width="1px" opacity="0.25"></line><line x1="0" y1="13.692307692307683" x2="280" y2="13.692307692307683" fill="rgb(0, 0, 0)" stroke="rgb(60, 60, 60)" stroke-width="1px" opacity="0.25"></line><line x1="0" y1="0" x2="280" y2="0" fill="rgb(0, 0, 0)" stroke="rgb(60, 60, 60)" stroke-width="1px" opacity="0.25"></line></g></g></g><g><g><line x1="0" y1="164.30769230769232" x2="280" y2="164.30769230769232" fill="rgb(0, 0, 0)" stroke="rgb(153, 153, 153)" stroke-width="1.5px"></line></g></g><g><g><line x1="31.11111111111111" y1="0" x2="31.11111111111111" y2="178" fill="rgb(0, 0, 0)" stroke="rgb(153, 153, 153)" stroke-width="1.5px"></line></g></g><g><g><g><g><g><path stroke="rgb(255, 112, 67)" stroke-width="2px" d="M31.11111111111111,141.0307689859317L31.73333333333333,130.7615390838339L32.355555555555554,124.12496080849573L32.977777777777774,123.71402642891083L33.6,126.47378382308683L34.22222222222222,130.28355793547314L34.84444444444444,127.94466107516523L35.46666666666667,122.68460089538361L36.08888888888889,110.94756595827964L36.711111111111116,117.54380855934781L37.333333333333336,117.07844328438767L37.955555555555556,114.60475900494535L38.577777777777776,120.25331024830655L39.2,120.89710590810657L39.82222222222222,124.02281064969667L40.44444444444444,118.22743573979497L41.06666666666667,120.77689343892949L41.68888888888888,122.87759828918354L42.31111111111111,124.11432657715524L42.93333333333333,120.47461593537903L43.55555555555556,122.12480621840027L44.17777777777778,123.6625962140964L44.800000000000004,123.48986340374222L45.42222222222222,113.52771757925572L46.044444444444444,103.16890865888897L46.666666666666664,98.0490275942239L47.28888888888889,102.76258884940337L47.91111111111111,100.54370527087218L48.53333333333333,92.09237363356877L49.15555555555555,84.83080575380235L49.77777777777778,87.04617487860973L50.4,83.44616644027495L51.022222222222226,84.02462388277071L51.644444444444446,85.4670819327182L52.266666666666666,87.97563538509962L52.888888888888886,86.70697025506249L53.51111111111111,84.88571929750464L54.13333333333333,87.07912271911941L54.75555555555556,90.03824339115363L55.37777777777778,91.81371579015486L56,88.49746167704411L56.62222222222222,83.76924701820047L57.24444444444445,82.02770179541123L57.86666666666667,81.53046644752663L58.488888888888894,84.60661660067308L59.111111111111114,86.91166109301972L59.733333333333334,88.29468778833571L60.355555555555554,88.02912023472312L60.977777777777774,83.48824215502208L61.6,83.50217749862438L62.22222222222222,84.05823049016057L62.84444444444445,86.58262942657578L63.46666666666666,83.71573124093428L64.08888888888889,81.79536092414746L64.71111111111111,80.29567835410913L65.33333333333333,81.58663921807697L65.95555555555555,80.17044533046743L66.57777777777778,76.03457502116761L67.2,69.71920707348167L67.82222222222222,68.66844849623223L68.44444444444444,70.22876049137155L69.06666666666666,75.54648850043405L69.68888888888888,73.36031662585056L70.31111111111112,73.5915731545147L70.93333333333334,72.08725171559654L71.55555555555554,71.18465885224565L72.17777777777778,72.28617849035176L72.8,70.75632313172656L73.42222222222223,67.647639510562L74.04444444444444,64.1393539817466L74.66666666666667,62.034382664457375L75.28888888888889,64.07522132776519L75.91111111111111,66.37744061954682L76.53333333333333,67.21108040924359L77.15555555555555,64.97280209169999L77.77777777777779,63.62983510117383L78.4,62.27636312148592L79.02222222222221,59.27350952768378L79.64444444444445,54.18564339466859L80.26666666666667,52.22831055010447L80.88888888888889,54.069160242404465L81.5111111111111,49.967650252756556L82.13333333333334,50.245206450329476L82.75555555555556,46.57789440676713L83.37777777777777,45.47289075137418L84,46.452963914255065L84.62222222222222,45.945624241239166L85.24444444444445,46.73660400817405L85.86666666666666,46.11580829759053L86.48888888888888,49.812742992646406L87.11111111111111,46.3184163321573L87.73333333333333,46.96027926272494L88.35555555555555,52.822321403788806L88.97777777777777,49.7672387349594L89.60000000000001,45.74341872767233L90.22222222222223,46.615280700033956L90.84444444444443,47.13839788345093L91.46666666666667,49.0953468141183L92.08888888888889,47.47805155031463L92.71111111111112,48.751447228864315L93.33333333333333,48.420097800749154L93.95555555555555,48.22128814388004L94.57777777777778,48.10200234975859L95.2,43.6488933258074L95.82222222222222,43.71549010279833L96.44444444444444,44.303139954365115L97.06666666666666,44.6557298653052L97.6888888888889,43.63644958452737L98.3111111111111,42.61264028728588L98.93333333333334,43.09373827968543L99.55555555555556,42.83470528975292L100.17777777777778,42.67928549579342L100.8,38.75218785731161L101.42222222222222,43.51592901306252L102.04444444444445,45.278786871268075L102.66666666666666,43.5980426593303L103.28888888888889,44.17966905744183L103.91111111111111,42.39087692116178L104.53333333333333,42.412988474638745L105.15555555555555,41.33086857147992L105.77777777777777,39.58621305884019L106.4,37.991727965884145L107.02222222222223,38.67811226622717L107.64444444444443,40.73302146705019L108.26666666666667,38.67981301081013L108.88888888888889,43.584398125829075L109.51111111111112,40.39063900607745L110.13333333333333,37.926691748854275L110.75555555555556,36.99601517989258L111.37777777777778,40.27145500062167L112,40.04594848706969L112.62222222222222,39.91064457893849L113.24444444444444,39.28177044868754L113.86666666666667,39.45213775590919L114.4888888888889,38.74754335964014L115.1111111111111,36.393142575619656L115.73333333333333,35.52819389057959L116.35555555555555,34.46153289418333L116.97777777777779,34.91691986709001L117.6,35.73784383620623L118.22222222222223,38.968860409037646L118.84444444444445,37.0736245906304L119.46666666666667,37.57955845570268L120.08888888888889,37.03507988126652L120.71111111111111,38.104123415456606L121.33333333333334,39.2932445858434L121.95555555555555,38.9113304528305L122.57777777777777,37.58679840227833L123.2,37.339770957319246L123.82222222222222,36.64386270497156L124.44444444444444,36.226317753562945L125.06666666666666,37.61886613883444L125.6888888888889,36.46974859289589L126.31111111111112,36.66954107168977L126.93333333333332,38.980186964955514L127.55555555555556,35.43734190356391L128.17777777777778,33.85932665210117L128.8,40.03252050456401L129.42222222222222,40.450282839307846L130.04444444444445,40.15324519028141L130.66666666666666,38.87963903012109L131.2888888888889,34.87054547016851L131.9111111111111,33.519248792063934L132.53333333333333,34.89924119119059L133.15555555555557,35.179544845294366L133.77777777777777,37.53849744374606L134.4,37.85848216757208L135.0222222222222,39.69355162248493L135.64444444444445,35.865360698081545L136.26666666666668,35.75921654942894L136.88888888888889,35.94287473750227L137.51111111111112,36.35341675845362L138.13333333333333,34.40897156503499L138.75555555555556,35.980766640345436L139.37777777777777,36.3761519001595L140,38.25646167666515L140.62222222222223,37.19387713657911L141.24444444444444,36.008634627155274L141.86666666666667,34.749797336128736L142.48888888888888,34.15939141302273L143.1111111111111,33.64025140764922L143.73333333333332,34.97184276054177L144.35555555555555,34.12772221616065L144.9777777777778,33.62124988953195L145.6,34.41275006429918L146.22222222222223,34.33995838378731L146.84444444444446,32.10551296949075L147.46666666666664,34.0509996976467L148.08888888888887,31.384445972434175L148.7111111111111,31.427589093423325L149.33333333333334,34.739628942750684L149.95555555555555,34.536085710858224L150.57777777777778,33.318572936477736L151.20000000000002,34.77883567783886L151.82222222222222,33.46422291666616L152.44444444444443,34.86622566595193L153.06666666666666,35.70742731552339L153.6888888888889,34.14505350240985L154.3111111111111,31.988570040664275L154.93333333333334,33.43314215497858L155.55555555555557,34.29988542356715L156.17777777777778,36.46300674083696L156.8,32.83165019834834L157.42222222222222,33.391298464216796L158.04444444444442,33.7270874237379L158.66666666666666,31.737790393461108L159.2888888888889,31.17435218642223L159.91111111111113,31.301532821816153L160.53333333333333,30.83014941768028L161.15555555555557,29.999627589826527L161.77777777777777,32.23977668447592L162.39999999999998,30.297712164531706L163.0222222222222,31.323243858554594L163.64444444444445,32.48625466034056L164.26666666666668,31.540982520794913L164.88888888888889,31.645186625572762L165.51111111111112,30.488649914562018L166.13333333333335,31.98549829394502L166.75555555555553,32.88360732157481L167.37777777777777,31.231702332163245L168,30.240559338516306L168.6222222222222,30.193565327700373L169.24444444444444,29.617677135838587L169.86666666666667,29.819836006093738L170.4888888888889,30.023579554001795L171.11111111111111,28.967993886247253L171.73333333333332,28.88233427096669L172.35555555555555,28.830938501798396L172.97777777777776,29.895484611041862L173.6,30.534212276587915L174.22222222222223,31.46514392578834L174.84444444444446,30.380624294691387L175.46666666666667,30.277604301405436L176.0888888888889,31.47607559218875L176.7111111111111,29.839491509159384L177.33333333333331,29.405232844713993L177.95555555555555,30.240061216791226L178.57777777777778,30.193266454665324L179.20000000000002,30.165189597389805L179.82222222222222,29.60065169765224L180.44444444444446,30.357312528554143L181.06666666666666,29.168233670978662L181.68888888888887,28.454786356433335L182.3111111111111,28.02671796770616L182.93333333333334,28.865260505214273L183.55555555555554,29.91607781309141L184.17777777777778,29.99887641244544L184.8,29.500863786685613L185.42222222222225,29.202056211229735L186.04444444444442,29.022771665956206L186.66666666666666,28.91520093879211L187.2888888888889,29.48079851362083L187.9111111111111,29.190017047390857L188.53333333333333,29.015548167652902L189.15555555555557,30.553945460427332L189.7777777777778,29.286213430102556L190.4,28.525574211907674L191.0222222222222,28.61688246636299L191.64444444444445,28.123975633663935L192.26666666666665,27.82823153404452L192.88888888888889,28.828616870772272L193.51111111111112,28.25101627630952L194.13333333333333,28.999839490376292L194.75555555555556,29.449133418816373L195.3777777777778,28.623326205135978L196,28.127841876927732L196.6222222222222,28.378243065375006L197.24444444444444,27.980791993071147L197.86666666666667,28.290013135061074L198.48888888888888,27.927854034882817L199.11111111111111,27.710558574775852L199.73333333333335,27.580181298711643L200.35555555555555,27.50195493307314L200.97777777777776,28.002710899062265L201.6,28.303164478655727L202.22222222222223,28.483436626411798L202.84444444444443,29.13929170043768L203.46666666666667,28.985112959480958L204.0888888888889,28.344913929534737L204.71111111111114,27.960794511567002L205.33333333333331,28.278014646158553L205.95555555555555,29.016038512285725L206.57777777777778,28.9111610465898L207.2,28.848234567172238L207.82222222222222,28.262786894149503L208.44444444444446,27.911518290335863L209.06666666666666,28.24844891341989L209.6888888888889,27.9029155018981L210.3111111111111,28.243287240357226L210.93333333333334,27.89981849806048L211.55555555555554,28.241429038054687L212.17777777777778,27.898703576678965L212.8,27.69306829985353L213.42222222222222,28.1173789191305L214.04444444444445,28.37196529069668L214.66666666666669,28.524717113636367L215.28888888888886,28.65759232027768L215.9111111111111,28.148401546012767L216.53333333333333,27.84288708145383L217.15555555555557,27.659578402718445L217.77777777777777,28.097284980849416L218.4,27.812217142355827L219.02222222222224,27.64117643925964L219.64444444444445,28.086243802774145L220.26666666666665,27.80559243551065L220.88888888888889,29.99286847265188L221.51111111111112,29.497259022809512L222.13333333333333,28.652201567531886L222.75555555555556,28.145167094365267L223.3777777777778,28.388638195837537L224,28.534720856720888L224.6222222222222,28.62237045325091L225.24444444444444,28.674960211168912L225.86666666666667,28.15882228054749L226.48888888888888,28.438055420424366L227.11111111111111,28.564371191472976L227.73333333333335,28.640160654102143L228.35555555555555,29.23332611705189L228.9777777777778,29.04153360944952L229.6,28.37876631951587L230.2222222222222,27.981105945555676L230.84444444444443,27.74250972117954L231.46666666666667,27.599351986553884L232.0888888888889,27.513457345778463L232.7111111111111,28.00961234668545L233.33333333333334,27.759613561857428L233.95555555555558,27.60961429096061L234.57777777777775,28.614998299166963L235.2,28.122845133346342L235.82222222222222,27.82755323385397L236.44444444444446,28.198069879530735L237.06666666666666,28.420379866936816L237.6888888888889,28.006074074008243L238.31111111111113,27.75749059825111L238.93333333333334,27.608340512796833L239.55555555555554,27.518850461524234L240.17777777777778,29.108231786877354L240.79999999999998,28.966477011344775L241.42222222222222,28.333732360653027L242.04444444444445,28.501777355610198L242.66666666666669,28.054912567212266L243.2888888888889,27.786793694173518L243.9111111111111,28.721305941094702L244.53333333333333,28.186629718502964L245.15555555555554,27.86582398494794L245.77777777777777,28.22103233018713L246.4,27.88646555195844L247.02222222222224,28.233417270393424L247.64444444444445,28.44158830145441L248.26666666666668,28.018799134718794L248.88888888888889,27.765125634677442L249.5111111111111,28.708305105397045L250.13333333333333,28.726521002456593L250.75555555555556,28.189758755320124L251.3777777777778,27.867701407038226L252,28.22215878344129L252.62222222222223,27.887141423910936L253.24444444444447,27.68613100819272L253.86666666666665,27.565524758761782L254.48888888888888,27.493161009103222L255.11111111111111,27.997434544680306L255.73333333333332,28.299998666026557L256.35555555555555,27.933845353462097L256.97777777777776,27.714153365923412L257.6,28.130029958772404L258.22222222222223,28.379555914481823L258.84444444444443,27.981579702535242L259.46666666666664,27.74279397536728L260.0888888888889,27.59952253906653L260.7111111111111,28.608943248030517" style="fill: none;" fill="none"></path></g></g></g></g><g opacity="0.2"><g><g><g><path stroke="rgb(255, 112, 67)" stroke-width="2px" d="M31.11111111111111,141.0307689859317L31.73333333333333,124.6000011425752L32.355555555555554,117.75384566417108L32.977777777777774,123.23076759851898L33.6,130.0769230769231L34.22222222222222,135.5538470515838L34.84444444444444,124.6000011425752L35.46666666666667,115.0153826566843L36.08888888888889,93.63771922771747L36.711111111111116,127.33846006943628L37.333333333333336,116.38461620074054L37.955555555555556,110.90769426639264L38.577777777777776,128.70769361349255L39.2,121.86153813508841L39.82222222222222,128.70769361349255L40.44444444444444,109.53846072233642L41.06666666666667,124.6000011425752L41.68888888888888,126.02812219583072L42.31111111111111,125.96923060600574L42.93333333333333,115.0153826566843L43.55555555555556,124.6000011425752L44.17777777777778,125.96923060600574L44.800000000000004,123.23076759851898L45.42222222222222,98.58461685364063L46.044444444444444,87.63076890431918L46.666666666666664,90.3692278311803L47.28888888888889,109.83291867146124L47.91111111111111,97.21538330958441L48.53333333333333,79.41538396248453L49.15555555555555,73.93845794751095L49.77777777777778,90.3692278311803L50.4,78.04615449905396L51.022222222222226,84.89230997745807L51.644444444444446,87.63076890431918L52.266666666666666,91.73846545586218L52.888888888888886,84.80397259272064L53.51111111111111,82.15384288934561L54.13333333333333,90.3692278311803L54.75555555555556,94.4769243827233L55.37777777777778,94.4769243827233L56,83.52308051402753L56.62222222222222,76.67692503562341L57.24444444444445,79.41538396248453L57.86666666666667,80.78461342591507L58.488888888888894,89.22084182959338L59.111111111111114,90.3692278311803L59.733333333333334,90.3692278311803L60.355555555555554,87.63076890431918L60.977777777777774,76.67692503562341L61.6,83.52308051402753L62.22222222222222,84.89230997745807L62.84444444444445,90.3692278311803L63.46666666666666,79.41538396248453L64.08888888888889,78.91480544897226L64.71111111111111,78.04615449905396L65.33333333333333,83.52308051402753L65.95555555555555,78.04615449905396L66.57777777777778,69.8307695572193L67.2,60.24615515195407L67.82222222222222,67.09231063035818L68.44444444444444,72.56922848408038L69.06666666666666,83.52308051402753L69.68888888888888,70.0810588139754L70.31111111111112,73.93845794751095L70.93333333333334,69.8307695572193L71.55555555555554,69.8307695572193L72.17777777777778,73.93845794751095L72.8,68.46154009378876L73.42222222222223,62.98461407881518L74.04444444444444,58.87692568852352L74.66666666666667,58.87692568852352L75.28888888888889,67.13647932272693L75.91111111111111,69.8307695572193L76.53333333333333,68.46154009378876L77.15555555555555,61.61538461538461L77.77777777777779,61.61538461538461L78.4,60.24615515195407L79.02222222222221,54.7692291369805L79.64444444444445,46.553844195145835L80.26666666666667,49.2923112832583L80.88888888888889,56.83043478085445L81.5111111111111,43.81538526828473L82.13333333333334,50.66154074668884L82.75555555555556,41.076926341423636L83.37777777777777,43.81538526828473L84,47.923073658576385L84.62222222222222,45.18461473171529L85.24444444444445,47.923073658576385L85.86666666666666,45.18461473171529L86.48888888888888,55.358145035230194L87.11111111111111,41.076926341423636L87.73333333333333,47.923073658576385L88.35555555555555,61.61538461538461L88.97777777777777,45.18461473171529L89.60000000000001,39.7076887167417L90.22222222222223,47.923073658576385L90.84444444444443,47.923073658576385L91.46666666666667,52.03077021011941L92.08888888888889,45.0521086546091L92.71111111111112,50.66154074668884L93.33333333333333,47.923073658576385L93.95555555555555,47.923073658576385L94.57777777777778,47.923073658576385L95.2,36.96922978988059L95.82222222222222,43.81538526828473L96.44444444444444,45.18461473171529L97.06666666666666,45.18461473171529L97.6888888888889,42.107529163360596L98.3111111111111,41.076926341423636L98.93333333333334,43.81538526828473L99.55555555555556,42.44615580485418L100.17777777777778,42.44615580485418L100.8,32.86154139958894L101.42222222222222,50.66154074668884L102.04444444444445,47.923073658576385L102.66666666666666,41.076926341423636L103.28888888888889,45.0521086546091L103.91111111111111,39.7076887167417L104.53333333333333,42.44615580485418L105.15555555555555,39.7076887167417L105.77777777777777,36.96922978988059L106.4,35.60000032645004L107.02222222222223,39.7076887167417L107.64444444444443,43.81538526828473L108.26666666666667,35.60000032645004L108.88888888888889,50.94127579835745L109.51111111111112,35.60000032645004L110.13333333333333,34.2307708630195L110.75555555555556,35.60000032645004L111.37777777777778,45.18461473171529L112,39.7076887167417L112.62222222222222,39.7076887167417L113.24444444444444,38.33845925331116L113.86666666666667,39.7076887167417L114.4888888888889,37.69065176523648L115.1111111111111,32.86154139958894L115.73333333333333,34.2307708630195L116.35555555555555,32.86154139958894L116.97777777777779,35.60000032645004L117.6,36.96922978988059L118.22222222222223,43.81538526828473L118.84444444444445,34.2307708630195L119.46666666666667,38.33845925331116L120.08888888888889,36.21836201961222L120.71111111111111,39.7076887167417L121.33333333333334,41.076926341423636L121.95555555555555,38.33845925331116L122.57777777777777,35.60000032645004L123.2,36.96922978988059L123.82222222222222,35.60000032645004L124.44444444444444,35.60000032645004L125.06666666666666,39.7076887167417L125.6888888888889,34.746072273987984L126.31111111111112,36.96922978988059L126.93333333333332,42.44615580485418L127.55555555555556,30.123074311476476L128.17777777777778,31.492303774907022L128.8,49.2923112832583L129.42222222222222,41.076926341423636L130.04444444444445,39.7076887167417L130.66666666666666,36.96922978988059L131.2888888888889,28.856905130239628L131.9111111111111,31.492303774907022L132.53333333333333,36.96922978988059L133.15555555555557,35.60000032645004L133.77777777777777,41.076926341423636L134.4,38.33845925331116L135.0222222222222,42.44615580485418L135.64444444444445,30.123074311476476L136.26666666666668,35.60000032645004L136.88888888888889,36.21836201961222L137.51111111111112,36.96922978988059L138.13333333333333,31.492303774907022L138.75555555555556,38.33845925331116L139.37777777777777,36.96922978988059L140,41.076926341423636L140.62222222222223,35.60000032645004L141.24444444444444,34.2307708630195L141.86666666666667,32.86154139958894L142.48888888888888,33.27378252836374L143.1111111111111,32.86154139958894L143.73333333333332,36.96922978988059L144.35555555555555,32.86154139958894L144.9777777777778,32.86154139958894L145.6,35.60000032645004L146.22222222222223,34.2307708630195L146.84444444444446,28.753844848045933L147.46666666666664,36.96922978988059L148.08888888888887,27.384615384615387L148.7111111111111,31.492303774907022L149.33333333333334,39.7076887167417L149.95555555555555,34.2307708630195L150.57777777777778,31.492303774907022L151.20000000000002,36.96922978988059L151.82222222222222,31.492303774907022L152.44444444444443,36.96922978988059L153.06666666666666,36.96922978988059L153.6888888888889,31.80149278273948L154.3111111111111,28.753844848045933L154.93333333333334,35.60000032645004L155.55555555555557,35.60000032645004L156.17777777777778,39.7076887167417L156.8,27.384615384615387L157.42222222222222,34.2307708630195L158.04444444444442,34.2307708630195L158.66666666666666,28.753844848045933L159.2888888888889,30.32919487586387L159.91111111111113,31.492303774907022L160.53333333333333,30.123074311476476L161.15555555555557,28.753844848045933L161.77777777777777,35.60000032645004L162.39999999999998,27.384615384615387L163.0222222222222,32.86154139958894L163.64444444444445,34.2307708630195L164.26666666666668,30.123074311476476L164.88888888888889,31.80149278273948L165.51111111111112,28.753844848045933L166.13333333333335,34.2307708630195L166.75555555555553,34.2307708630195L167.37777777777777,28.753844848045933L168,28.753844848045933L168.6222222222222,30.123074311476476L169.24444444444444,28.753844848045933L169.86666666666667,30.123074311476476L170.4888888888889,30.32919487586387L171.11111111111111,27.384615384615387L171.73333333333332,28.753844848045933L172.35555555555555,28.753844848045933L172.97777777777776,31.492303774907022L173.6,31.492303774907022L174.22222222222223,32.86154139958894L174.84444444444446,28.753844848045933L175.46666666666667,30.123074311476476L176.0888888888889,33.27378252836374L176.7111111111111,27.384615384615387L177.33333333333331,28.753844848045933L177.95555555555555,31.492303774907022L178.57777777777778,30.123074311476476L179.20000000000002,30.123074311476476L179.82222222222222,28.753844848045933L180.44444444444446,31.492303774907022L181.06666666666666,27.384615384615387L181.68888888888887,27.384615384615387L182.3111111111111,27.384615384615387L182.93333333333334,30.123074311476476L183.55555555555554,31.492303774907022L184.17777777777778,30.123074311476476L184.8,28.753844848045933L185.42222222222225,28.753844848045933L186.04444444444442,28.753844848045933L186.66666666666666,28.753844848045933L187.2888888888889,30.32919487586387L187.9111111111111,28.753844848045933L188.53333333333333,28.753844848045933L189.15555555555557,32.86154139958894L189.7777777777778,27.384615384615387L190.4,27.384615384615387L191.0222222222222,28.753844848045933L191.64444444444445,27.384615384615387L192.26666666666665,27.384615384615387L192.88888888888889,30.32919487586387L193.51111111111112,27.384615384615387L194.13333333333333,30.123074311476476L194.75555555555556,30.123074311476476L195.3777777777778,27.384615384615387L196,27.384615384615387L196.6222222222222,28.753844848045933L197.24444444444444,27.384615384615387L197.86666666666667,28.753844848045933L198.48888888888888,27.384615384615387L199.11111111111111,27.384615384615387L199.73333333333335,27.384615384615387L200.35555555555555,27.384615384615387L200.97777777777776,28.753844848045933L201.6,28.753844848045933L202.22222222222223,28.753844848045933L202.84444444444443,30.123074311476476L203.46666666666667,28.753844848045933L204.0888888888889,27.384615384615387L204.71111111111114,27.384615384615387L205.33333333333331,28.753844848045933L205.95555555555555,30.123074311476476L206.57777777777778,28.753844848045933L207.2,28.753844848045933L207.82222222222222,27.384615384615387L208.44444444444446,27.384615384615387L209.06666666666666,28.753844848045933L209.6888888888889,27.384615384615387L210.3111111111111,28.753844848045933L210.93333333333334,27.384615384615387L211.55555555555554,28.753844848045933L212.17777777777778,27.384615384615387L212.8,27.384615384615387L213.42222222222222,28.753844848045933L214.04444444444445,28.753844848045933L214.66666666666669,28.753844848045933L215.28888888888886,28.856905130239628L215.9111111111111,27.384615384615387L216.53333333333333,27.384615384615387L217.15555555555557,27.384615384615387L217.77777777777777,28.753844848045933L218.4,27.384615384615387L219.02222222222224,27.384615384615387L219.64444444444445,28.753844848045933L220.26666666666665,27.384615384615387L220.88888888888889,33.27378252836374L221.51111111111112,28.753844848045933L222.13333333333333,27.384615384615387L222.75555555555556,27.384615384615387L223.3777777777778,28.753844848045933L224,28.753844848045933L224.6222222222222,28.753844848045933L225.24444444444444,28.753844848045933L225.86666666666667,27.384615384615387L226.48888888888888,28.856905130239628L227.11111111111111,28.753844848045933L227.73333333333335,28.753844848045933L228.35555555555555,30.123074311476476L228.9777777777778,28.753844848045933L229.6,27.384615384615387L230.2222222222222,27.384615384615387L230.84444444444443,27.384615384615387L231.46666666666667,27.384615384615387L232.0888888888889,27.384615384615387L232.7111111111111,28.753844848045933L233.33333333333334,27.384615384615387L233.95555555555558,27.384615384615387L234.57777777777775,30.123074311476476L235.2,27.384615384615387L235.82222222222222,27.384615384615387L236.44444444444446,28.753844848045933L237.06666666666666,28.753844848045933L237.6888888888889,27.384615384615387L238.31111111111113,27.384615384615387L238.93333333333334,27.384615384615387L239.55555555555554,27.384615384615387L240.17777777777778,31.492303774907022L240.79999999999998,28.753844848045933L241.42222222222222,27.384615384615387L242.04444444444445,28.753844848045933L242.66666666666669,27.384615384615387L243.2888888888889,27.384615384615387L243.9111111111111,30.123074311476476L244.53333333333333,27.384615384615387L245.15555555555554,27.384615384615387L245.77777777777777,28.753844848045933L246.4,27.384615384615387L247.02222222222224,28.753844848045933L247.64444444444445,28.753844848045933L248.26666666666668,27.384615384615387L248.88888888888889,27.384615384615387L249.5111111111111,30.123074311476476L250.13333333333333,28.753844848045933L250.75555555555556,27.384615384615387L251.3777777777778,27.384615384615387L252,28.753844848045933L252.62222222222223,27.384615384615387L253.24444444444447,27.384615384615387L253.86666666666665,27.384615384615387L254.48888888888888,27.384615384615387L255.11111111111111,28.753844848045933L255.73333333333332,28.753844848045933L256.35555555555555,27.384615384615387L256.97777777777776,27.384615384615387L257.6,28.753844848045933L258.22222222222223,28.753844848045933L258.84444444444443,27.384615384615387L259.46666666666664,27.384615384615387L260.0888888888889,27.384615384615387L260.7111111111111,30.123074311476476" style="fill: none;" fill="none"></path></g></g></g></g></g></g><g transform="translate(50, 178)" clip-path="url(#clip_1)"><clipPath id="clip_1"><rect width="280" height="21"></rect></clipPath><g><g><line x1="0" y1="0" x2="0" y2="5" style="visibility: inherit;" fill="rgb(0, 0, 0)" stroke="rgb(204, 204, 204)" stroke-width="1px"></line><line x1="31.11111111111111" y1="0" x2="31.11111111111111" y2="5" style="visibility: inherit;" fill="rgb(0, 0, 0)" stroke="rgb(204, 204, 204)" stroke-width="1px"></line><line x1="62.22222222222222" y1="0" x2="62.22222222222222" y2="5" style="visibility: inherit;" fill="rgb(0, 0, 0)" stroke="rgb(204, 204, 204)" stroke-width="1px"></line><line x1="93.33333333333333" y1="0" x2="93.33333333333333" y2="5" style="visibility: inherit;" fill="rgb(0, 0, 0)" stroke="rgb(204, 204, 204)" stroke-width="1px"></line><line x1="124.44444444444444" y1="0" x2="124.44444444444444" y2="5" style="visibility: inherit;" fill="rgb(0, 0, 0)" stroke="rgb(204, 204, 204)" stroke-width="1px"></line><line x1="155.55555555555557" y1="0" x2="155.55555555555557" y2="5" style="visibility: inherit;" fill="rgb(0, 0, 0)" stroke="rgb(204, 204, 204)" stroke-width="1px"></line><line x1="186.66666666666666" y1="0" x2="186.66666666666666" y2="5" style="visibility: inherit;" fill="rgb(0, 0, 0)" stroke="rgb(204, 204, 204)" stroke-width="1px"></line><line x1="217.77777777777777" y1="0" x2="217.77777777777777" y2="5" style="visibility: inherit;" fill="rgb(0, 0, 0)" stroke="rgb(204, 204, 204)" stroke-width="1px"></line><line x1="248.88888888888889" y1="0" x2="248.88888888888889" y2="5" style="visibility: inherit;" fill="rgb(0, 0, 0)" stroke="rgb(204, 204, 204)" stroke-width="1px"></line><line x1="280" y1="0" x2="280" y2="5" style="visibility: inherit;" fill="rgb(0, 0, 0)" stroke="rgb(204, 204, 204)" stroke-width="1px"></line></g><g transform="translate(0, 8)"><text x="0" y="0" dx="0em" dy="0.95em" style="text-anchor: middle; visibility: hidden; font-family: Roboto, sans-serif; font-size: 12px; font-weight: 200;" fill="rgb(50, 49, 63)" stroke="none" stroke-width="1px">-50</text><text x="31.11111111111111" y="0" dx="0em" dy="0.95em" style="text-anchor: middle; visibility: inherit; font-family: Roboto, sans-serif; font-size: 12px; font-weight: 200;" fill="rgb(50, 49, 63)" stroke="none" stroke-width="1px">0</text><text x="62.22222222222222" y="0" dx="0em" dy="0.95em" style="text-anchor: middle; visibility: inherit; font-family: Roboto, sans-serif; font-size: 12px; font-weight: 200;" fill="rgb(50, 49, 63)" stroke="none" stroke-width="1px">50</text><text x="93.33333333333333" y="0" dx="0em" dy="0.95em" style="text-anchor: middle; visibility: inherit; font-family: Roboto, sans-serif; font-size: 12px; font-weight: 200;" fill="rgb(50, 49, 63)" stroke="none" stroke-width="1px">100</text><text x="124.44444444444444" y="0" dx="0em" dy="0.95em" style="text-anchor: middle; visibility: inherit; font-family: Roboto, sans-serif; font-size: 12px; font-weight: 200;" fill="rgb(50, 49, 63)" stroke="none" stroke-width="1px">150</text><text x="155.55555555555557" y="0" dx="0em" dy="0.95em" style="text-anchor: middle; visibility: inherit; font-family: Roboto, sans-serif; font-size: 12px; font-weight: 200;" fill="rgb(50, 49, 63)" stroke="none" stroke-width="1px">200</text><text x="186.66666666666666" y="0" dx="0em" dy="0.95em" style="text-anchor: middle; visibility: inherit; font-family: Roboto, sans-serif; font-size: 12px; font-weight: 200;" fill="rgb(50, 49, 63)" stroke="none" stroke-width="1px">250</text><text x="217.77777777777777" y="0" dx="0em" dy="0.95em" style="text-anchor: middle; visibility: inherit; font-family: Roboto, sans-serif; font-size: 12px; font-weight: 200;" fill="rgb(50, 49, 63)" stroke="none" stroke-width="1px">300</text><text x="248.88888888888889" y="0" dx="0em" dy="0.95em" style="text-anchor: middle; visibility: inherit; font-family: Roboto, sans-serif; font-size: 12px; font-weight: 200;" fill="rgb(50, 49, 63)" stroke="none" stroke-width="1px">350</text><text x="280" y="0" dx="0em" dy="0.95em" style="text-anchor: middle; visibility: hidden; font-family: Roboto, sans-serif; font-size: 12px; font-weight: 200;" fill="rgb(50, 49, 63)" stroke="none" stroke-width="1px">400</text></g><line x1="0" y1="0" x2="280" y2="0" fill="rgb(0, 0, 0)" stroke="rgb(204, 204, 204)" stroke-width="1px"></line></g></g></g></g></svg>