<svg viewBox="0 0 330 200" xmlns="http://www.w3.org/2000/svg"><g><g><g><g><g><line x1="50" y1="178" x2="45" y2="178" style="visibility: inherit;" fill="rgb(0, 0, 0)" stroke="rgb(204, 204, 204)" stroke-width="1px"></line><line x1="50" y1="158.2222222222222" x2="45" y2="158.2222222222222" style="visibility: inherit;" fill="rgb(0, 0, 0)" stroke="rgb(204, 204, 204)" stroke-width="1px"></line><line x1="50" y1="138.44444444444446" x2="45" y2="138.44444444444446" style="visibility: inherit;" fill="rgb(0, 0, 0)" stroke="rgb(204, 204, 204)" stroke-width="1px"></line><line x1="50" y1="118.66666666666666" x2="45" y2="118.66666666666666" style="visibility: inherit;" fill="rgb(0, 0, 0)" stroke="rgb(204, 204, 204)" stroke-width="1px"></line><line x1="50" y1="98.8888888888889" x2="45" y2="98.8888888888889" style="visibility: inherit;" fill="rgb(0, 0, 0)" stroke="rgb(204, 204, 204)" stroke-width="1px"></line><line x1="50" y1="79.1111111111111" x2="45" y2="79.1111111111111" style="visibility: inherit;" fill="rgb(0, 0, 0)" stroke="rgb(204, 204, 204)" stroke-width="1px"></line><line x1="50" y1="59.33333333333334" x2="45" y2="59.33333333333334" style="visibility: inherit;" fill="rgb(0, 0, 0)" stroke="rgb(204, 204, 204)" stroke-width="1px"></line><line x1="50" y1="39.55555555555557" x2="45" y2="39.55555555555557" style="visibility: inherit;" fill="rgb(0, 0, 0)" stroke="rgb(204, 204, 204)" stroke-width="1px"></line><line x1="50" y1="19.777777777777786" x2="45" y2="19.777777777777786" style="visibility: inherit;" fill="rgb(0, 0, 0)" stroke="rgb(204, 204, 204)" stroke-width="1px"></line><line x1="50" y1="0" x2="45" y2="0" style="visibility: inherit;" fill="rgb(0, 0, 0)" stroke="rgb(204, 204, 204)" stroke-width="1px"></line></g><g transform="translate(40, 0)"><text x="0" y="178" dx="0em" dy="0.3em" style="text-anchor: end; visibility: hidden; font-family: Roboto, sans-serif; font-size: 12px; font-weight: 200;" fill="rgb(50, 49, 63)" stroke="none" stroke-width="1px">-0.2</text><text x="0" y="158.2222222222222" dx="0em" dy="0.3em" style="text-anchor: end; visibility: inherit; font-family: Roboto, sans-serif; font-size: 12px; font-weight: 200;" fill="rgb(50, 49, 63)" stroke="none" stroke-width="1px">0</text><text x="0" y="138.44444444444446" dx="0em" dy="0.3em" style="text-anchor: end; visibility: hidden; font-family: Roboto, sans-serif; font-size: 12px; font-weight: 200;" fill="rgb(50, 49, 63)" stroke="none" stroke-width="1px">0.2</text><text x="0" y="118.66666666666666" dx="0em" dy="0.3em" style="text-anchor: end; visibility: inherit; font-family: Roboto, sans-serif; font-size: 12px; font-weight: 200;" fill="rgb(50, 49, 63)" stroke="none" stroke-width="1px">0.4</text><text x="0" y="98.8888888888889" dx="0em" dy="0.3em" style="text-anchor: end; visibility: hidden; font-family: Roboto, sans-serif; font-size: 12px; font-weight: 200;" fill="rgb(50, 49, 63)" stroke="none" stroke-width="1px">0.6</text><text x="0" y="79.1111111111111" dx="0em" dy="0.3em" style="text-anchor: end; visibility: inherit; font-family: Roboto, sans-serif; font-size: 12px; font-weight: 200;" fill="rgb(50, 49, 63)" stroke="none" stroke-width="1px">0.8</text><text x="0" y="59.33333333333334" dx="0em" dy="0.3em" style="text-anchor: end; visibility: hidden; font-family: Roboto, sans-serif; font-size: 12px; font-weight: 200;" fill="rgb(50, 49, 63)" stroke="none" stroke-width="1px">1</text><text x="0" y="39.55555555555557" dx="0em" dy="0.3em" style="text-anchor: end; visibility: inherit; font-family: Roboto, sans-serif; font-size: 12px; font-weight: 200;" fill="rgb(50, 49, 63)" stroke="none" stroke-width="1px">1.2</text><text x="0" y="19.777777777777786" dx="0em" dy="0.3em" style="text-anchor: end; visibility: hidden; font-family: Roboto, sans-serif; font-size: 12px; font-weight: 200;" fill="rgb(50, 49, 63)" stroke="none" stroke-width="1px">1.4</text><text x="0" y="0" dx="0em" dy="0.3em" style="text-anchor: end; visibility: hidden; font-family: Roboto, sans-serif; font-size: 12px; font-weight: 200;" fill="rgb(50, 49, 63)" stroke="none" stroke-width="1px">1.6</text></g><line x1="50" y1="0" x2="50" y2="178" fill="rgb(0, 0, 0)" stroke="rgb(204, 204, 204)" stroke-width="1px"></line></g></g><g transform="translate(50, 0)" clip-path="url(#clip_0)"><clipPath id="clip_0"><rect width="280" height="177"></rect></clipPath><g><g><g><line x1="0" y1="0" x2="0" y2="178" fill="rgb(0, 0, 0)" stroke="rgb(60, 60, 60)" stroke-width="1px" opacity="0.25"></line><line x1="31.11111111111111" y1="0" x2="31.11111111111111" y2="178" fill="rgb(0, 0, 0)" stroke="rgb(60, 60, 60)" stroke-width="1px" opacity="0.25"></line><line x1="62.22222222222222" y1="0" x2="62.22222222222222" y2="178" fill="rgb(0, 0, 0)" stroke="rgb(60, 60, 60)" stroke-width="1px" opacity="0.25"></line><line x1="93.33333333333333" y1="0" x2="93.33333333333333" y2="178" fill="rgb(0, 0, 0)" stroke="rgb(60, 60, 60)" stroke-width="1px" opacity="0.25"></line><line x1="124.44444444444444" y1="0" x2="124.44444444444444" y2="178" fill="rgb(0, 0, 0)" stroke="rgb(60, 60, 60)" stroke-width="1px" opacity="0.25"></line><line x1="155.55555555555557" y1="0" x2="155.55555555555557" y2="178" fill="rgb(0, 0, 0)" stroke="rgb(60, 60, 60)" stroke-width="1px" opacity="0.25"></line><line x1="186.66666666666666" y1="0" x2="186.66666666666666" y2="178" fill="rgb(0, 0, 0)" stroke="rgb(60, 60, 60)" stroke-width="1px" opacity="0.25"></line><line x1="217.77777777777777" y1="0" x2="217.77777777777777" y2="178" fill="rgb(0, 0, 0)" stroke="rgb(60, 60, 60)" stroke-width="1px" opacity="0.25"></line><line x1="248.88888888888889" y1="0" x2="248.88888888888889" y2="178" fill="rgb(0, 0, 0)" stroke="rgb(60, 60, 60)" stroke-width="1px" opacity="0.25"></line><line x1="280" y1="0" x2="280" y2="178" fill="rgb(0, 0, 0)" stroke="rgb(60, 60, 60)" stroke-width="1px" opacity="0.25"></line></g><g><line x1="0" y1="178" x2="280" y2="178" fill="rgb(0, 0, 0)" stroke="rgb(60, 60, 60)" stroke-width="1px" opacity="0.25"></line><line x1="0" y1="158.2222222222222" x2="280" y2="158.2222222222222" fill="rgb(0, 0, 0)" stroke="rgb(60, 60, 60)" stroke-width="1px" opacity="0.25"></line><line x1="0" y1="138.44444444444446" x2="280" y2="138.44444444444446" fill="rgb(0, 0, 0)" stroke="rgb(60, 60, 60)" stroke-width="1px" opacity="0.25"></line><line x1="0" y1="118.66666666666666" x2="280" y2="118.66666666666666" fill="rgb(0, 0, 0)" stroke="rgb(60, 60, 60)" stroke-width="1px" opacity="0.25"></line><line x1="0" y1="98.8888888888889" x2="280" y2="98.8888888888889" fill="rgb(0, 0, 0)" stroke="rgb(60, 60, 60)" stroke-width="1px" opacity="0.25"></line><line x1="0" y1="79.1111111111111" x2="280" y2="79.1111111111111" fill="rgb(0, 0, 0)" stroke="rgb(60, 60, 60)" stroke-width="1px" opacity="0.25"></line><line x1="0" y1="59.33333333333334" x2="280" y2="59.33333333333334" fill="rgb(0, 0, 0)" stroke="rgb(60, 60, 60)" stroke-width="1px" opacity="0.25"></line><line x1="0" y1="39.55555555555557" x2="280" y2="39.55555555555557" fill="rgb(0, 0, 0)" stroke="rgb(60, 60, 60)" stroke-width="1px" opacity="0.25"></line><line x1="0" y1="19.777777777777786" x2="280" y2="19.777777777777786" fill="rgb(0, 0, 0)" stroke="rgb(60, 60, 60)" stroke-width="1px" opacity="0.25"></line><line x1="0" y1="0" x2="280" y2="0" fill="rgb(0, 0, 0)" stroke="rgb(60, 60, 60)" stroke-width="1px" opacity="0.25"></line></g></g></g><g><g><line x1="0" y1="158.2222222222222" x2="280" y2="158.2222222222222" fill="rgb(0, 0, 0)" stroke="rgb(153, 153, 153)" stroke-width="1.5px"></line></g></g><g><g><line x1="31.11111111111111" y1="0" x2="31.11111111111111" y2="178" fill="rgb(0, 0, 0)" stroke="rgb(153, 153, 153)" stroke-width="1.5px"></line></g></g><g><g><g><g><g><path stroke="rgb(255, 112, 67)" stroke-width="2px" d="M31.11111111111111,12.10171516736349L31.73333333333333,12.177750825881958L32.355555555555554,15.431568181433644L32.977777777777774,16.26687130916353L33.6,16.130403724335544L34.22222222222222,12.634043598960387L34.84444444444444,13.00813508950251L35.46666666666667,12.095369513083629L36.08888888888889,17.321690272758875L36.711111111111116,18.950031085397725L37.333333333333336,22.686172756893352L37.955555555555556,26.420681414232526L38.577777777777776,24.454048610652116L39.2,24.421201860249507L39.82222222222222,24.34408756897649L40.44444444444444,26.253035977394934L41.06666666666667,25.423986638701393L41.68888888888888,25.392244564788268L42.31111111111111,25.167215895404556L42.93333333333333,26.153294630964382L43.55555555555556,26.122285086683018L44.17777777777778,25.977272680658203L44.800000000000004,26.570372482516333L45.42222222222222,26.994659425147923L46.044444444444444,28.134335039475943L46.666666666666664,29.32141744835049L47.28888888888889,30.035084931453664L47.91111111111111,30.89922771244447L48.53333333333333,32.58783742054442L49.15555555555555,34.996235091372036L49.77777777777778,33.654661585421415L50.4,36.0171299699147L51.022222222222226,37.12927052264524L51.644444444444446,38.07273048611602L52.266666666666666,38.46327134781838L52.888888888888886,41.397099892971305L53.51111111111111,44.75370730822327L54.13333333333333,44.89943906307383L54.75555555555556,44.608128585273384L55.37777777777778,45.4820402488661L56,48.6649663859966L56.62222222222222,52.989864498002824L57.24444444444445,56.09218636619626L57.86666666666667,56.43064300967371L58.488888888888894,55.80045577067741L59.111111111111114,57.77631782279646L59.733333333333334,57.41387164662654L60.355555555555554,59.45485632995934L60.977777777777774,65.41654882731886L61.6,65.72678243923814L62.22222222222222,68.20052317665404L62.84444444444445,67.84239414200245L63.46666666666666,67.13720107196681L64.08888888888889,68.94142312014971L64.71111111111111,72.26166573885216L65.33333333333333,73.16403760215225L65.95555555555555,76.69625792192517L66.57777777777778,75.3140053984745L67.2,75.93326638893964L67.82222222222222,75.53997970475763L68.44444444444444,74.96484386105409L69.06666666666666,76.12432531556267L69.68888888888888,77.63045528489154L70.31111111111112,74.6080149455999L70.93333333333334,76.236448054825L71.55555555555554,78.12152221784542L72.17777777777778,79.41640528763L72.8,80.76471068496306L73.42222222222223,84.99629350391572L74.04444444444444,90.00990563166668L74.66666666666667,92.63356353030785L75.28888888888889,92.88634811684531L75.91111111111111,90.40873880492673L76.53333333333333,92.29261115773734L77.15555555555555,93.38081199345187L77.77777777777779,92.02698524909204L78.4,92.74815985961283L79.02222222222221,93.15203709114374L79.64444444444445,96.46077426299719L80.26666666666667,96.77926777748758L80.88888888888889,94.94371062287783L81.5111111111111,96.45615690808951L82.13333333333334,95.63460445453931L82.75555555555556,99.37966010335543L83.37777777777777,101.03246715881502L84,105.31107860205088L84.62222222222222,102.51085768314044L85.24444444444445,102.05179414984025L85.86666666666666,104.19452338253652L86.48888888888888,99.96498457293828L87.11111111111111,103.10269486990907L87.73333333333333,104.73542897223503L88.35555555555555,99.27645710499527L88.97777777777777,102.1620677461379L89.60000000000001,104.33301218715893L90.22222222222223,106.88481996543425L90.84444444444443,104.78606367560558L91.46666666666667,104.95862618821926L92.08888888888889,110.12554912940833L92.71111111111112,108.07815718557144L93.33333333333333,108.1355875645421L93.95555555555555,110.57142164196624L94.57777777777778,111.21488332018221L95.2,114.22018953785941L95.82222222222222,113.61689300910022L96.44444444444444,110.693002621451L97.06666666666666,112.014640853211L97.6888888888889,113.01314287242906L98.3111111111111,116.02594714146095L98.93333333333334,114.50211612584268L99.55555555555556,116.45507268761177L100.17777777777778,115.61724538928351L100.8,117.94737712140528L101.42222222222222,115.15672482143565L102.04444444444445,115.1068099404815L102.66666666666666,114.88771965893766L103.28888888888889,113.54340832308527L103.91111111111111,115.55248679312095L104.53333333333333,115.92650104253043L105.15555555555555,118.03872410072019L105.77777777777777,121.38272615837928L106.4,124.2264827550192L107.02222222222223,124.80172574352326L107.64444444444443,124.39909678994279L108.26666666666667,126.50067435151203L108.88888888888889,118.47802417411589L109.51111111111112,122.75421058363894L110.13333333333333,126.04219634867019L110.75555555555556,127.86226694572419L111.37777777777778,125.15511748465966L112,125.4190030438752L112.62222222222222,124.61526639122074L113.24444444444444,125.19273631951856L113.86666666666667,126.36247226571695L114.4888888888889,126.8988048346711L115.1111111111111,128.7980142130246L115.73333333333333,129.54889506528187L116.35555555555555,132.87019878616908L116.97777777777779,132.3893111718488L117.6,131.54862769150157L118.22222222222223,127.15447379836162L118.84444444444445,129.47337739944356L119.46666666666667,131.01033668751126L120.08888888888889,130.88713512507508L120.71111111111111,133.25910095849756L121.33333333333334,130.4788571439267L121.95555555555555,129.972120763055L122.57777777777777,130.82711346485374L123.2,129.53575108040928L123.82222222222222,131.0272548452391L124.44444444444444,132.6668827619709L125.06666666666666,128.94886725199896L125.6888888888889,132.27545530496315L126.31111111111112,133.77714688518608L126.93333333333332,130.72716806362118L127.55555555555556,135.6877880972428L128.17777777777778,137.66606006844987L128.8,130.33102798489554L129.42222222222222,129.08518206295068L130.04444444444445,129.77314875983546L130.66666666666666,130.19703116295744L131.2888888888889,136.22642742428653L131.9111111111111,138.91885562572298L132.53333333333333,137.7625009884442L133.15555555555557,135.56353169567083L133.77777777777777,133.75345016650377L134.4,134.93873077775913L135.0222222222222,130.81167651501823L135.64444444444445,136.18404915967767L136.26666666666668,134.66234016110675L136.88888888888889,134.25234192292663L137.51111111111112,135.89740874974393L138.13333333333333,138.45907719233045L138.75555555555556,136.8549491284196L139.37777777777777,137.02995336361158L140,132.1164521394616L140.62222222222223,134.33306231078845L141.24444444444444,136.84094218531982L141.86666666666667,139.2274420851321L142.48888888888888,139.27556200255725L143.1111111111111,139.57799551676905L143.73333333333332,139.32267438446203L144.35555555555555,138.8396519857463L144.9777777777778,140.50808859891592L145.6,139.05908301356243L146.22222222222223,138.7299206786323L146.84444444444446,141.7812849150546L147.46666666666664,138.6466330899002L148.08888888888887,142.93830594167986L148.7111111111111,144.04922300756832L149.33333333333334,140.3184195118664L149.95555555555555,138.17822735453754L150.57777777777778,141.61243529750638L151.20000000000002,138.05265704837348L151.82222222222222,139.11914620559887L152.44444444444443,139.1348965763074L153.06666666666666,139.2789723528173L153.6888888888889,141.47273135897L154.3111111111111,143.69628903630596L154.93333333333334,141.94319023838904L155.55555555555557,140.85870105250768L156.17777777777778,137.2499769926183L156.8,142.27034599318114L157.42222222222222,142.3614609987246L158.04444444444442,140.56314807704L158.66666666666666,144.42470160466974L159.2888888888889,145.31013483940424L159.91111111111113,145.14822218302206L160.53333333333333,147.08220924095966L161.15555555555557,148.46687749187808L161.77777777777777,146.26885132819146L162.39999999999998,148.09825700022617L163.0222222222222,145.66099409227937L163.64444444444445,144.71763865927082L164.26666666666668,145.59501443108783L164.88888888888889,143.65929858565846L165.51111111111112,146.33744261074375L166.13333333333335,142.69379773317098L166.75555555555553,143.5096772003206L167.37777777777777,146.56306922761794L168,147.4436622917346L168.6222222222222,147.9926777259325L169.24444444444444,148.20876143695472L169.86666666666667,148.6576585749083L170.4888888888889,148.29470701425367L171.11111111111111,149.45645250392084L171.73333333333332,148.9269727161256L172.35555555555555,149.45714403070707L172.97777777777776,148.43812351485045L173.6,149.32839748365322L174.22222222222223,148.21184569592194L174.84444444444446,148.7901416334538L175.46666666666667,149.03900284116304L176.0888888888889,148.25630157715977L176.7111111111111,150.044435772129L177.33333333333331,150.13068775173377L177.95555555555555,149.95169370341773L178.57777777777778,148.0401614816429L179.20000000000002,148.67657953635177L179.82222222222222,148.44082189150512L180.44444444444446,148.1845841102671L181.06666666666666,149.9875996625148L181.68888888888887,151.09571379516856L182.3111111111111,152.3150534529481L182.93333333333334,152.0288153356376L183.55555555555554,151.5900667667029L184.17777777777778,149.92090474259018L184.8,150.76124374549948L185.42222222222225,150.10315516679304L186.04444444444442,150.71832051065192L186.66666666666666,151.74891167394296L187.2888888888889,150.94326643321764L187.9111111111111,151.6168500993415L188.53333333333333,152.22718675417292L189.15555555555557,147.91696970419306L189.7777777777778,150.66172866940894L190.4,152.2292443754167L191.0222222222222,151.94858104240242L191.64444444444445,152.92248324438074L192.26666666666665,153.31828324593255L192.88888888888889,152.43579689885135L193.51111111111112,153.45344654654437L194.13333333333333,150.46322980086987L194.75555555555556,150.39316911369485L195.3777777777778,151.970076280057L196,152.90346220897143L196.6222222222222,152.43547191745608L197.24444444444444,153.43093848111835L197.86666666666667,153.04247946967251L198.48888888888888,153.65002527426753L199.11111111111111,153.98476622986772L199.73333333333335,154.35223793876952L200.35555555555555,154.2864836961263L200.97777777777776,154.094607800193L201.6,153.51937074724344L202.22222222222223,152.9261934190138L202.84444444444443,150.55310167181688L203.46666666666667,151.9761828858149L204.0888888888889,152.9966771692463L204.71111111111114,153.80521101695865L205.33333333333331,153.3567027366712L205.95555555555555,151.67180614437652L206.57777777777778,151.1929259412116L207.2,152.49647937724086L207.82222222222222,153.33906523954988L208.44444444444446,153.69740111241677L209.06666666666666,153.89688546756204L209.6888888888889,154.7372371893417L210.3111111111111,153.61866292736013L210.93333333333334,154.02493864127644L211.55555555555554,154.42252553301245L212.17777777777778,154.9013132889567L212.8,155.04352287339157L213.42222222222222,153.08299760949802L214.04444444444445,153.16003302692687L214.66666666666669,153.82494552641035L215.28888888888886,153.09895665737014L215.9111111111111,154.1039657933038L216.53333333333333,154.92262917960812L217.15555555555557,154.9919460861856L217.77777777777777,155.00978422291257L218.4,155.29905331806648L219.02222222222224,155.31369162853346L219.64444444444445,154.13341579854625L220.26666666666665,154.68266510015144L220.88888888888889,150.120609861883L221.51111111111112,151.3173989170427L222.13333333333333,153.14719199735399L222.75555555555556,154.31513323130628L223.3777777777778,152.84038405596004L224,153.88026031921908L224.6222222222222,154.21337731257773L225.24444444444444,153.4571497931621L225.86666666666667,154.38179337233885L226.48888888888888,153.91377222886038L227.11111111111111,153.71158395022363L227.73333333333335,152.59141293518536L228.35555555555555,152.2585893916919L228.9777777777778,152.69090439598102L229.6,154.03899251337387L230.2222222222222,155.00753013954548L230.84444444444443,155.1971190275377L231.46666666666667,155.31565929131133L232.0888888888889,155.64162970538788L232.7111111111111,155.2212285910068L233.33333333333334,155.5858185817875L233.95555555555558,155.83976006654035L234.57777777777775,152.81592821169176L235.2,154.12005790027942L235.82222222222222,154.81975004827095L236.44444444444446,154.54215574118564L237.06666666666666,153.90818306086965L237.6888888888889,154.88522891982169L238.31111111111113,155.44624022580118L238.93333333333334,155.50410404283627L239.55555555555554,155.88340201232793L240.17777777777778,153.4328709544643L240.79999999999998,152.52458993009157L241.42222222222222,154.01128364881066L242.04444444444445,154.15554826823984L242.66666666666669,154.91487143060434L243.2888888888889,155.43502387542713L243.9111111111111,153.37234652059124L244.53333333333333,154.6614485839351L245.15555555555554,155.35456496036116L245.77777777777777,154.5314773480128L246.4,155.3456699716732L247.02222222222224,154.83039601087017L247.64444444444445,154.19058084782955L248.26666666666668,155.0588707724697L248.88888888888889,155.65610024081587L249.5111111111111,152.485205624317L250.13333333333333,152.99177337549352L250.75555555555556,154.48468785493574L251.3777777777778,155.33850239802138L252,154.68816295087245L252.62222222222223,155.36850613645657L253.24444444444447,155.66143034837478L253.86666666666665,156.02438135128983L254.48888888888888,156.3051901188234L255.11111111111111,155.6158540840987L255.73333333333332,154.9593792449394L256.35555555555555,155.67487931818522L256.97777777777776,155.80132200329624L257.6,154.70577503878678L258.22222222222223,153.30554149001787L258.84444444444443,154.65978633963368L259.46666666666664,155.4142162190078L260.0888888888889,155.89135320799738L260.7111111111111,154.51459615088484" style="fill: none;" fill="none"></path></g></g></g></g><g opacity="0.2"><g><g><g><path stroke="rgb(255, 112, 67)" stroke-width="2px" d="M31.11111111111111,12.10171516736349L31.73333333333333,12.223372220993042L32.355555555555554,18.55523284276327L32.977777777777774,17.249187787373867L33.6,15.952231645584106L34.22222222222222,7.797318855921441L34.84444444444444,13.543091906441594L35.46666666666667,10.764548540115356L36.08888888888889,25.029498232735538L36.711111111111116,21.367927418814773L37.333333333333336,28.256498734156303L37.955555555555556,32.002121369044L38.577777777777776,21.510520802603835L39.2,24.37199608484905L39.82222222222222,24.228506777021636L40.44444444444444,29.115112251705607L41.06666666666667,24.180763456556548L41.68888888888888,25.34463951322769L42.31111111111111,24.829707172181873L42.93333333333333,27.632322602801857L43.55555555555556,26.075772470898112L44.17777777777778,25.759758843315982L44.800000000000004,27.46001047558256L45.42222222222222,27.631084813012027L46.044444444444444,29.84384036064148L46.666666666666664,31.102035999298096L47.28888888888889,31.10558433002897L47.91111111111111,32.195440557267936L48.53333333333333,35.120750427246094L49.15555555555555,38.60883026652866L49.77777777777778,31.642301771375884L50.4,39.560832076602516L51.022222222222226,38.79748121897381L51.644444444444446,39.48792036374411L52.266666666666666,39.04908262358772L52.888888888888886,45.797842635048774L53.51111111111111,49.788618379169044L54.13333333333333,45.11803669399687L54.75555555555556,44.17116287019518L55.37777777777778,46.79290774133471L56,53.43935558531019L56.62222222222222,59.477211660809004L57.24444444444445,60.74566916624706L57.86666666666667,56.93832797474333L58.488888888888894,54.85517491234675L59.111111111111114,60.740110900666984L59.733333333333334,56.87020238240561L60.355555555555554,62.516333354844L60.977777777777774,74.35908757315742L61.6,66.19213285711076L62.22222222222222,71.91113428274792L62.84444444444445,67.30520059002771L63.46666666666666,66.07941146691641L64.08888888888889,71.64775619241927L64.71111111111111,77.24202966690063L65.33333333333333,74.51759539710152L65.95555555555555,81.9945884015825L66.57777777777778,73.24062661329907L67.2,76.86215787463719L67.82222222222222,74.95004967848462L68.44444444444444,74.10214009549883L69.06666666666666,77.86354749732548L69.68888888888888,79.88965023888483L70.31111111111112,70.07435443666246L70.93333333333334,78.6790977186627L71.55555555555554,80.94913346237608L72.17777777777778,81.35872989230687L72.8,82.78716878096265L73.42222222222223,91.34366773234474L74.04444444444444,97.53032382329306L74.66666666666667,96.56905037826961L75.28888888888889,93.26552499665155L75.91111111111111,86.69232483704886L76.53333333333333,95.11841968695325L77.15555555555555,95.0131132470237L77.77777777777779,89.99624513255226L78.4,93.82992177539403L79.02222222222221,93.75785293844011L79.64444444444445,101.4238800207774L80.26666666666667,97.25700804922317L80.88888888888889,92.19037489096326L81.5111111111111,98.72482633590698L82.13333333333334,94.40227577421402L82.75555555555556,104.99724357657963L83.37777777777777,103.5116777420044L84,111.72899576690462L84.62222222222222,98.31052630477483L85.24444444444445,101.36319884988998L85.86666666666666,107.40861723158096L86.48888888888888,93.62067635854086L87.11111111111111,107.80926031536525L87.73333333333333,107.18453012572395L88.35555555555555,91.08799930413565L88.97777777777777,106.49048370785182L89.60000000000001,107.58942884869045L90.22222222222223,110.71253163284725L90.84444444444443,101.63792924086255L91.46666666666667,105.21746995713976L92.08888888888889,117.87593354119194L92.71111111111112,105.0070692698161L93.33333333333333,108.22173313299817L93.95555555555555,114.22517275810242L94.57777777777778,112.18007583750618L95.2,118.72814886437523L95.82222222222222,112.71194821596146L96.44444444444444,106.30716703997719L97.06666666666666,113.99709820085103L97.6888888888889,114.51089590125615L98.3111111111111,120.54515354500877L98.93333333333334,112.21636960241531L99.55555555555556,119.3845075302654L100.17777777777778,114.36050444179112L100.8,121.44257471958798L101.42222222222222,110.97074637148117L102.04444444444445,115.03193761905035L102.66666666666666,114.55908423662186L103.28888888888889,111.5269413193067L103.91111111111111,118.56610449817445L104.53333333333333,116.48752241664464L105.15555555555555,121.20705868800482L105.77777777777777,126.39872924486798L106.4,128.49211764997906L107.02222222222223,125.66459022627937L107.64444444444443,123.79515335957211L108.26666666666667,129.6530406938659L108.88888888888889,106.44404890802171L109.51111111111112,129.16849019792346L110.13333333333333,130.97417499621707L110.75555555555556,130.5923728413052L111.37777777777778,121.09439329306286L112,125.81483138269847L112.62222222222222,123.40966141223907L113.24444444444444,126.05894121196535L113.86666666666667,128.11707618501453L114.4888888888889,127.70330368810231L115.1111111111111,131.6468282805549L115.73333333333333,130.67521634366778L116.35555555555555,137.85215436749988L116.97777777777779,131.66797975036832L117.6,130.28760247098077L118.22222222222223,120.56324295865166L118.84444444444445,132.95173280106653L119.46666666666667,133.31577561961282L120.08888888888889,130.70233278142084L120.71111111111111,136.81704970863132L121.33333333333334,126.30849142207039L121.95555555555555,129.21201619174747L122.57777777777777,132.10960251755185L123.2,127.59870750374263L123.82222222222222,133.2645104924838L124.44444444444444,135.12632463706862L125.06666666666666,123.37184398704106L125.6888888888889,137.26533738440938L126.31111111111112,136.0296842555205L126.93333333333332,126.15219983127382L127.55555555555556,143.1287181476752L128.17777777777778,140.6334680252605L128.8,119.32847985956406L129.42222222222222,127.21641318003338L130.04444444444445,130.80509880516263L130.66666666666666,130.8328547676404L131.2888888888889,145.27052181628017L131.9111111111111,142.95749792787763L132.53333333333333,136.02796903252602L133.15555555555557,132.26507775651086L133.77777777777777,131.03832787275314L134.4,136.7166516946422L135.0222222222222,124.62109512090683L135.64444444444445,144.24260812666682L136.26666666666668,132.3797766632504L136.88888888888889,133.63734456565646L137.51111111111112,138.36500898996988L138.13333333333333,142.30157985621028L138.75555555555556,134.44875703255335L139.37777777777777,137.29245971639952L140,124.74620030323666L140.62222222222223,137.65797756777872L141.24444444444444,140.60276199711691L141.86666666666667,142.8071919348505L142.48888888888888,139.34774187869496L143.1111111111111,140.03164578808676L143.73333333333332,138.93969268600145L144.35555555555555,138.11511838767262L144.9777777777778,143.0107435186704L145.6,136.88557463553218L146.22222222222223,138.2361771762371L146.84444444444446,146.35833126968808L147.46666666666664,133.9446553521686L148.08888888888887,149.37581521934933L148.7111111111111,145.71559860640102L149.33333333333334,134.72221426831354L149.95555555555555,134.96793911854425L150.57777777777778,146.76374721195964L151.20000000000002,132.71298967467416L151.82222222222222,140.71887994143697L152.44444444444443,139.1585221323702L153.06666666666666,139.49508601758214L153.6888888888889,144.76336986819902L154.3111111111111,147.03162555230986L154.93333333333334,139.31354204151364L155.55555555555557,139.23196727368565L156.17777777777778,131.83689090278415L156.8,149.80089949402543L157.42222222222222,142.49813350703982L158.04444444444442,137.86567869451312L158.66666666666666,150.21703189611435L159.2888888888889,146.63828469150596L159.91111111111113,144.9053531984488L160.53333333333333,149.98318982786603L161.15555555555557,150.54387986825574L161.77777777777777,142.9718120826615L162.39999999999998,150.84236550827822L163.0222222222222,142.0050997303592L163.64444444444445,143.302605509758L164.26666666666668,146.91107808881335L164.88888888888889,140.75572481751442L165.51111111111112,150.3546586483717L166.13333333333335,137.22833041681181L166.75555555555553,144.73349640104504L167.37777777777777,151.1431572685639L168,148.76455188790956L168.6222222222222,148.81620087722936L169.24444444444444,148.532887003488L169.86666666666667,149.33100428183874L170.4888888888889,147.7502796732717L171.11111111111111,151.19907073842157L171.73333333333332,148.13275303443274L172.35555555555555,150.25240100257926L172.97777777777776,146.90959274106555L173.6,150.66380843685735L174.22222222222223,146.537018014325L174.84444444444446,149.65758553975158L175.46666666666667,149.41229465272693L176.0888888888889,147.08224968115488L176.7111111111111,152.72663706458277L177.33333333333331,150.260065721141L177.95555555555555,149.68320263094373L178.57777777777778,145.17286314898067L179.20000000000002,149.631206618415L179.82222222222222,148.08718542423514L180.44444444444446,147.80022743841013L181.06666666666666,152.69212299088636L181.68888888888887,152.7578849941492L182.3111111111111,154.14406293961736L182.93333333333334,151.5994581596719L183.55555555555554,150.93194391330084L184.17777777777778,147.4171617064211L184.8,152.02175224986343L185.42222222222225,149.11602229873338L186.04444444444442,151.6410685264402L186.66666666666666,153.2947984188795L187.2888888888889,149.73479857212968L187.9111111111111,152.6272255985273L188.53333333333333,153.14269173642L189.15555555555557,141.4516441292233L189.7777777777778,154.77886711723275L190.4,154.58051793442834L191.0222222222222,151.527586042881L191.64444444444445,154.38333654734822L192.26666666666665,153.9119832482603L192.88888888888889,151.11206737822957L193.51111111111112,154.9799210180839L194.13333333333333,145.97790468235812L194.75555555555556,150.28807808293234L195.3777777777778,154.33543702960014L196,154.30354110234313L196.6222222222222,151.73348648018307L197.24444444444444,154.9241383266118L197.86666666666667,152.45979095250368L198.48888888888888,154.56134398116004L199.11111111111111,154.48687766326796L199.73333333333335,154.90344550212225L200.35555555555555,154.18785233216155L200.97777777777776,153.80679395629298L201.6,152.65651516781915L202.22222222222223,152.03642742666932L202.84444444444443,146.99346405102145L203.46666666666667,154.1108047068119L204.0888888888889,154.52741859439345L204.71111111111114,155.01801178852716L205.33333333333331,152.68394031623998L205.95555555555555,149.14446125593452L206.57777777777778,150.47460563646425L207.2,154.45180953128468L207.82222222222222,154.60294403301347L208.44444444444446,154.23490492171712L209.06666666666666,154.19611200027995L209.6888888888889,155.99776477201115L210.3111111111111,151.9408015343878L210.93333333333334,154.6343522121509L211.55555555555554,155.01890587061644L212.17777777777778,155.61949492287306L212.8,155.25683725004396L213.42222222222222,150.1422097136577L214.04444444444445,153.27558615307012L214.66666666666669,154.8223142756356L215.28888888888886,152.00997335380978L215.9111111111111,155.61147949720421L216.53333333333333,156.15062425906459L217.15555555555557,155.09592144605188L217.77777777777777,155.03654142800303L218.4,155.7329569607973L219.02222222222224,155.3356490942339L219.64444444444445,152.36300205356545L220.26666666666665,155.50653905255925L220.88888888888889,143.27752700448036L221.51111111111112,153.11258249978223L222.13333333333333,155.89188161782093L222.75555555555556,156.06704508223467L223.3777777777778,150.62826029294067L224,155.44007471410762L224.6222222222222,154.7130528026157L225.24444444444444,152.3228085140387L225.86666666666667,155.76875874110394L226.48888888888888,153.21174051364264L227.11111111111111,153.40830153226852L227.73333333333335,150.91115641262797L228.35555555555555,151.75935407645173L228.9777777777778,153.33937690241467L229.6,156.0611246894631L230.2222222222222,156.46033657880295L230.84444444444443,155.48150235952605L231.46666666666667,155.4934696869718L232.0888888888889,156.1305853265027L232.7111111111111,154.59062691943515L233.33333333333334,156.13270356795854L233.95555555555558,156.22067229366965L234.57777777777775,148.2801804294189L235.2,156.07625243316093L235.82222222222222,155.86928827025824L236.44444444444446,154.12576428055763L237.06666666666666,152.9572240403957L237.6888888888889,156.35079770824976L238.31111111111113,156.28775718477038L238.93333333333334,155.59089976838894L239.55555555555554,156.4523489665654L240.17777777777778,149.7570743676689L240.79999999999998,151.16216839353243L241.42222222222222,156.24132422688933L242.04444444444445,154.37194519738355L242.66666666666669,156.0538561741511L243.2888888888889,156.21525254266132L243.9111111111111,150.2783304883374L244.53333333333333,156.5951016789509L245.15555555555554,156.39423952500024L245.77777777777777,153.29684592949022L246.4,156.5669589071638L247.02222222222224,154.05748506966563L247.64444444444445,153.23085810326867L248.26666666666668,156.36130565942992L248.88888888888889,156.55194444333515L249.5111111111111,147.72886369956862L250.13333333333333,153.75162500225835L250.75555555555556,156.72405957409907L251.3777777777778,156.61922421264978L252,153.7126537801491L252.62222222222223,156.38902091483274L253.24444444444447,156.1008166662521L253.86666666666665,156.56880785566239L254.48888888888888,156.7264032701237L255.11111111111111,154.58185003201166L255.73333333333332,153.97466698620053L256.35555555555555,156.7481294280539L256.97777777777776,155.99098603096274L257.6,153.06245459202262L258.22222222222223,151.20519116686452L258.84444444444443,156.6911536140574L259.46666666666664,156.54586103806892L260.0888888888889,156.60705869148174L260.7111111111111,152.44946056521601" style="fill: none;" fill="none"></path></g></g></g></g></g></g><g transform="translate(50, 178)" clip-path="url(#clip_1)"><clipPath id="clip_1"><rect width="280" height="21"></rect></clipPath><g><g><line x1="0" y1="0" x2="0" y2="5" style="visibility: inherit;" fill="rgb(0, 0, 0)" stroke="rgb(204, 204, 204)" stroke-width="1px"></line><line x1="31.11111111111111" y1="0" x2="31.11111111111111" y2="5" style="visibility: inherit;" fill="rgb(0, 0, 0)" stroke="rgb(204, 204, 204)" stroke-width="1px"></line><line x1="62.22222222222222" y1="0" x2="62.22222222222222" y2="5" style="visibility: inherit;" fill="rgb(0, 0, 0)" stroke="rgb(204, 204, 204)" stroke-width="1px"></line><line x1="93.33333333333333" y1="0" x2="93.33333333333333" y2="5" style="visibility: inherit;" fill="rgb(0, 0, 0)" stroke="rgb(204, 204, 204)" stroke-width="1px"></line><line x1="124.44444444444444" y1="0" x2="124.44444444444444" y2="5" style="visibility: inherit;" fill="rgb(0, 0, 0)" stroke="rgb(204, 204, 204)" stroke-width="1px"></line><line x1="155.55555555555557" y1="0" x2="155.55555555555557" y2="5" style="visibility: inherit;" fill="rgb(0, 0, 0)" stroke="rgb(204, 204, 204)" stroke-width="1px"></line><line x1="186.66666666666666" y1="0" x2="186.66666666666666" y2="5" style="visibility: inherit;" fill="rgb(0, 0, 0)" stroke="rgb(204, 204, 204)" stroke-width="1px"></line><line x1="217.77777777777777" y1="0" x2="217.77777777777777" y2="5" style="visibility: inherit;" fill="rgb(0, 0, 0)" stroke="rgb(204, 204, 204)" stroke-width="1px"></line><line x1="248.88888888888889" y1="0" x2="248.88888888888889" y2="5" style="visibility: inherit;" fill="rgb(0, 0, 0)" stroke="rgb(204, 204, 204)" stroke-width="1px"></line><line x1="280" y1="0" x2="280" y2="5" style="visibility: inherit;" fill="rgb(0, 0, 0)" stroke="rgb(204, 204, 204)" stroke-width="1px"></line></g><g transform="translate(0, 8)"><text x="0" y="0" dx="0em" dy="0.95em" style="text-anchor: middle; visibility: hidden; font-family: Roboto, sans-serif; font-size: 12px; font-weight: 200;" fill="rgb(50, 49, 63)" stroke="none" stroke-width="1px">-50</text><text x="31.11111111111111" y="0" dx="0em" dy="0.95em" style="text-anchor: middle; visibility: inherit; font-family: Roboto, sans-serif; font-size: 12px; font-weight: 200;" fill="rgb(50, 49, 63)" stroke="none" stroke-width="1px">0</text><text x="62.22222222222222" y="0" dx="0em" dy="0.95em" style="text-anchor: middle; visibility: inherit; font-family: Roboto, sans-serif; font-size: 12px; font-weight: 200;" fill="rgb(50, 49, 63)" stroke="none" stroke-width="1px">50</text><text x="93.33333333333333" y="0" dx="0em" dy="0.95em" style="text-anchor: middle; visibility: inherit; font-family: Roboto, sans-serif; font-size: 12px; font-weight: 200;" fill="rgb(50, 49, 63)" stroke="none" stroke-width="1px">100</text><text x="124.44444444444444" y="0" dx="0em" dy="0.95em" style="text-anchor: middle; visibility: inherit; font-family: Roboto, sans-serif; font-size: 12px; font-weight: 200;" fill="rgb(50, 49, 63)" stroke="none" stroke-width="1px">150</text><text x="155.55555555555557" y="0" dx="0em" dy="0.95em" style="text-anchor: middle; visibility: inherit; font-family: Roboto, sans-serif; font-size: 12px; font-weight: 200;" fill="rgb(50, 49, 63)" stroke="none" stroke-width="1px">200</text><text x="186.66666666666666" y="0" dx="0em" dy="0.95em" style="text-anchor: middle; visibility: inherit; font-family: Roboto, sans-serif; font-size: 12px; font-weight: 200;" fill="rgb(50, 49, 63)" stroke="none" stroke-width="1px">250</text><text x="217.77777777777777" y="0" dx="0em" dy="0.95em" style="text-anchor: middle; visibility: inherit; font-family: Roboto, sans-serif; font-size: 12px; font-weight: 200;" fill="rgb(50, 49, 63)" stroke="none" stroke-width="1px">300</text><text x="248.88888888888889" y="0" dx="0em" dy="0.95em" style="text-anchor: middle; visibility: inherit; font-family: Roboto, sans-serif; font-size: 12px; font-weight: 200;" fill="rgb(50, 49, 63)" stroke="none" stroke-width="1px">350</text><text x="280" y="0" dx="0em" dy="0.95em" style="text-anchor: middle; visibility: hidden; font-family: Roboto, sans-serif; font-size: 12px; font-weight: 200;" fill="rgb(50, 49, 63)" stroke="none" stroke-width="1px">400</text></g><line x1="0" y1="0" x2="280" y2="0" fill="rgb(0, 0, 0)" stroke="rgb(204, 204, 204)" stroke-width="1px"></line></g></g></g></g></svg>