<svg viewBox="0 0 330 200" xmlns="http://www.w3.org/2000/svg"><g><g><g><g><g><line x1="50" y1="178" x2="45" y2="178" style="visibility: inherit;" fill="rgb(0, 0, 0)" stroke="rgb(204, 204, 204)" stroke-width="1px"></line><line x1="50" y1="158.2222222222222" x2="45" y2="158.2222222222222" style="visibility: inherit;" fill="rgb(0, 0, 0)" stroke="rgb(204, 204, 204)" stroke-width="1px"></line><line x1="50" y1="138.44444444444446" x2="45" y2="138.44444444444446" style="visibility: inherit;" fill="rgb(0, 0, 0)" stroke="rgb(204, 204, 204)" stroke-width="1px"></line><line x1="50" y1="118.66666666666666" x2="45" y2="118.66666666666666" style="visibility: inherit;" fill="rgb(0, 0, 0)" stroke="rgb(204, 204, 204)" stroke-width="1px"></line><line x1="50" y1="98.8888888888889" x2="45" y2="98.8888888888889" style="visibility: inherit;" fill="rgb(0, 0, 0)" stroke="rgb(204, 204, 204)" stroke-width="1px"></line><line x1="50" y1="79.1111111111111" x2="45" y2="79.1111111111111" style="visibility: inherit;" fill="rgb(0, 0, 0)" stroke="rgb(204, 204, 204)" stroke-width="1px"></line><line x1="50" y1="59.33333333333334" x2="45" y2="59.33333333333334" style="visibility: inherit;" fill="rgb(0, 0, 0)" stroke="rgb(204, 204, 204)" stroke-width="1px"></line><line x1="50" y1="39.55555555555557" x2="45" y2="39.55555555555557" style="visibility: inherit;" fill="rgb(0, 0, 0)" stroke="rgb(204, 204, 204)" stroke-width="1px"></line><line x1="50" y1="19.777777777777786" x2="45" y2="19.777777777777786" style="visibility: inherit;" fill="rgb(0, 0, 0)" stroke="rgb(204, 204, 204)" stroke-width="1px"></line><line x1="50" y1="0" x2="45" y2="0" style="visibility: inherit;" fill="rgb(0, 0, 0)" stroke="rgb(204, 204, 204)" stroke-width="1px"></line></g><g transform="translate(40, 0)"><text x="0" y="178" dx="0em" dy="0.3em" style="text-anchor: end; visibility: hidden; font-family: Roboto, sans-serif; font-size: 12px; font-weight: 200;" fill="rgb(50, 49, 63)" stroke="none" stroke-width="1px">-0.2</text><text x="0" y="158.2222222222222" dx="0em" dy="0.3em" style="text-anchor: end; visibility: inherit; font-family: Roboto, sans-serif; font-size: 12px; font-weight: 200;" fill="rgb(50, 49, 63)" stroke="none" stroke-width="1px">0</text><text x="0" y="138.44444444444446" dx="0em" dy="0.3em" style="text-anchor: end; visibility: hidden; font-family: Roboto, sans-serif; font-size: 12px; font-weight: 200;" fill="rgb(50, 49, 63)" stroke="none" stroke-width="1px">0.2</text><text x="0" y="118.66666666666666" dx="0em" dy="0.3em" style="text-anchor: end; visibility: inherit; font-family: Roboto, sans-serif; font-size: 12px; font-weight: 200;" fill="rgb(50, 49, 63)" stroke="none" stroke-width="1px">0.4</text><text x="0" y="98.8888888888889" dx="0em" dy="0.3em" style="text-anchor: end; visibility: hidden; font-family: Roboto, sans-serif; font-size: 12px; font-weight: 200;" fill="rgb(50, 49, 63)" stroke="none" stroke-width="1px">0.6</text><text x="0" y="79.1111111111111" dx="0em" dy="0.3em" style="text-anchor: end; visibility: inherit; font-family: Roboto, sans-serif; font-size: 12px; font-weight: 200;" fill="rgb(50, 49, 63)" stroke="none" stroke-width="1px">0.8</text><text x="0" y="59.33333333333334" dx="0em" dy="0.3em" style="text-anchor: end; visibility: hidden; font-family: Roboto, sans-serif; font-size: 12px; font-weight: 200;" fill="rgb(50, 49, 63)" stroke="none" stroke-width="1px">1</text><text x="0" y="39.55555555555557" dx="0em" dy="0.3em" style="text-anchor: end; visibility: inherit; font-family: Roboto, sans-serif; font-size: 12px; font-weight: 200;" fill="rgb(50, 49, 63)" stroke="none" stroke-width="1px">1.2</text><text x="0" y="19.777777777777786" dx="0em" dy="0.3em" style="text-anchor: end; visibility: hidden; font-family: Roboto, sans-serif; font-size: 12px; font-weight: 200;" fill="rgb(50, 49, 63)" stroke="none" stroke-width="1px">1.4</text><text x="0" y="0" dx="0em" dy="0.3em" style="text-anchor: end; visibility: hidden; font-family: Roboto, sans-serif; font-size: 12px; font-weight: 200;" fill="rgb(50, 49, 63)" stroke="none" stroke-width="1px">1.6</text></g><line x1="50" y1="0" x2="50" y2="178" fill="rgb(0, 0, 0)" stroke="rgb(204, 204, 204)" stroke-width="1px"></line></g></g><g transform="translate(50, 0)" clip-path="url(#clip_0)"><clipPath id="clip_0"><rect width="280" height="177"></rect></clipPath><g><g><g><line x1="0" y1="0" x2="0" y2="178" fill="rgb(0, 0, 0)" stroke="rgb(60, 60, 60)" stroke-width="1px" opacity="0.25"></line><line x1="21.53846153846154" y1="0" x2="21.53846153846154" y2="178" fill="rgb(0, 0, 0)" stroke="rgb(60, 60, 60)" stroke-width="1px" opacity="0.25"></line><line x1="43.07692307692308" y1="0" x2="43.07692307692308" y2="178" fill="rgb(0, 0, 0)" stroke="rgb(60, 60, 60)" stroke-width="1px" opacity="0.25"></line><line x1="64.61538461538461" y1="0" x2="64.61538461538461" y2="178" fill="rgb(0, 0, 0)" stroke="rgb(60, 60, 60)" stroke-width="1px" opacity="0.25"></line><line x1="86.15384615384616" y1="0" x2="86.15384615384616" y2="178" fill="rgb(0, 0, 0)" stroke="rgb(60, 60, 60)" stroke-width="1px" opacity="0.25"></line><line x1="107.6923076923077" y1="0" x2="107.6923076923077" y2="178" fill="rgb(0, 0, 0)" stroke="rgb(60, 60, 60)" stroke-width="1px" opacity="0.25"></line><line x1="129.23076923076923" y1="0" x2="129.23076923076923" y2="178" fill="rgb(0, 0, 0)" stroke="rgb(60, 60, 60)" stroke-width="1px" opacity="0.25"></line><line x1="150.76923076923077" y1="0" x2="150.76923076923077" y2="178" fill="rgb(0, 0, 0)" stroke="rgb(60, 60, 60)" stroke-width="1px" opacity="0.25"></line><line x1="172.30769230769232" y1="0" x2="172.30769230769232" y2="178" fill="rgb(0, 0, 0)" stroke="rgb(60, 60, 60)" stroke-width="1px" opacity="0.25"></line><line x1="193.84615384615384" y1="0" x2="193.84615384615384" y2="178" fill="rgb(0, 0, 0)" stroke="rgb(60, 60, 60)" stroke-width="1px" opacity="0.25"></line><line x1="215.3846153846154" y1="0" x2="215.3846153846154" y2="178" fill="rgb(0, 0, 0)" stroke="rgb(60, 60, 60)" stroke-width="1px" opacity="0.25"></line><line x1="236.92307692307693" y1="0" x2="236.92307692307693" y2="178" fill="rgb(0, 0, 0)" stroke="rgb(60, 60, 60)" stroke-width="1px" opacity="0.25"></line><line x1="258.46153846153845" y1="0" x2="258.46153846153845" y2="178" fill="rgb(0, 0, 0)" stroke="rgb(60, 60, 60)" stroke-width="1px" opacity="0.25"></line><line x1="280" y1="0" x2="280" y2="178" fill="rgb(0, 0, 0)" stroke="rgb(60, 60, 60)" stroke-width="1px" opacity="0.25"></line></g><g><line x1="0" y1="178" x2="280" y2="178" fill="rgb(0, 0, 0)" stroke="rgb(60, 60, 60)" stroke-width="1px" opacity="0.25"></line><line x1="0" y1="158.2222222222222" x2="280" y2="158.2222222222222" fill="rgb(0, 0, 0)" stroke="rgb(60, 60, 60)" stroke-width="1px" opacity="0.25"></line><line x1="0" y1="138.44444444444446" x2="280" y2="138.44444444444446" fill="rgb(0, 0, 0)" stroke="rgb(60, 60, 60)" stroke-width="1px" opacity="0.25"></line><line x1="0" y1="118.66666666666666" x2="280" y2="118.66666666666666" fill="rgb(0, 0, 0)" stroke="rgb(60, 60, 60)" stroke-width="1px" opacity="0.25"></line><line x1="0" y1="98.8888888888889" x2="280" y2="98.8888888888889" fill="rgb(0, 0, 0)" stroke="rgb(60, 60, 60)" stroke-width="1px" opacity="0.25"></line><line x1="0" y1="79.1111111111111" x2="280" y2="79.1111111111111" fill="rgb(0, 0, 0)" stroke="rgb(60, 60, 60)" stroke-width="1px" opacity="0.25"></line><line x1="0" y1="59.33333333333334" x2="280" y2="59.33333333333334" fill="rgb(0, 0, 0)" stroke="rgb(60, 60, 60)" stroke-width="1px" opacity="0.25"></line><line x1="0" y1="39.55555555555557" x2="280" y2="39.55555555555557" fill="rgb(0, 0, 0)" stroke="rgb(60, 60, 60)" stroke-width="1px" opacity="0.25"></line><line x1="0" y1="19.777777777777786" x2="280" y2="19.777777777777786" fill="rgb(0, 0, 0)" stroke="rgb(60, 60, 60)" stroke-width="1px" opacity="0.25"></line><line x1="0" y1="0" x2="280" y2="0" fill="rgb(0, 0, 0)" stroke="rgb(60, 60, 60)" stroke-width="1px" opacity="0.25"></line></g></g></g><g><g><line x1="0" y1="158.2222222222222" x2="280" y2="158.2222222222222" fill="rgb(0, 0, 0)" stroke="rgb(153, 153, 153)" stroke-width="1.5px"></line></g></g><g><g><line x1="21.53846153846154" y1="0" x2="21.53846153846154" y2="178" fill="rgb(0, 0, 0)" stroke="rgb(153, 153, 153)" stroke-width="1.5px"></line></g></g><g><g><g><g><g><path stroke="rgb(255, 112, 67)" stroke-width="2px" d="M21.53846153846154,22.468581888410796L22.615384615384617,23.902089820967788L23.692307692307693,21.193450302223507L24.76923076923077,18.249179479051254L25.846153846153847,20.85683785038949L26.923076923076923,22.0737163883744L28,22.779108306171416L29.07692307692308,22.856114234423597L30.153846153846157,23.093951272076886L31.230769230769234,22.468154504265847L32.30769230769231,25.220583779243714L33.38461538461539,25.55601454622141L34.46153846153847,23.772637136272426L35.53846153846153,25.901496865831724L36.61538461538462,23.94804660861672L37.69230769230769,25.4295592575239L38.769230769230774,25.315971640103044L39.84615384615385,24.730481724941185L40.92307692307693,25.884658569091798L42,26.31599541176597L43.07692307692308,27.53364051045144L44.15384615384615,27.281680087537005L45.23076923076923,27.77283669516223L46.30769230769231,27.13268359828609L47.38461538461539,28.575024903273057L48.46153846153846,29.450961260369986L49.53846153846154,30.038138178301246L50.61538461538461,31.423624179942582L51.69230769230769,32.10372092613725L52.76923076923077,34.12452260068195L53.84615384615385,35.02773030042668L54.92307692307692,36.14683744738185L56,36.69834687486799L57.07692307692307,36.16493570837929L58.15384615384616,37.38802860846118L59.23076923076923,37.89008992238125L60.307692307692314,38.311903937559116L61.38461538461539,39.11028000910216L62.46153846153847,40.71577452301526L63.53846153846154,44.97198816717117L64.61538461538461,46.789695890363994L65.6923076923077,46.382929669591874L66.76923076923077,47.77958505995058L67.84615384615384,50.899171458111134L68.92307692307693,53.05662875713373L70,53.861494795580036L71.07692307692307,54.13156172865276L72.15384615384615,55.26502403096439L73.23076923076924,56.054965276387534L74.3076923076923,57.98317977653876L75.38461538461539,61.87670373640518L76.46153846153845,61.82823376489901L77.53846153846155,64.5098736986227L78.61538461538461,65.86118990542214L79.6923076923077,66.20045009272351L80.76923076923076,66.39599475804542L81.84615384615385,64.1984990423861L82.92307692307692,69.47589340656064L84,69.24964959200325L85.07692307692307,70.96998677583869L86.15384615384616,72.36844990610487L87.23076923076923,72.59336242519133L88.3076923076923,73.16686003802936L89.38461538461537,74.45052593323159L90.46153846153847,73.46395046204535L91.53846153846153,74.43898339550485L92.61538461538461,76.77937533545968L93.69230769230768,77.00491161531626L94.76923076923077,78.74414017364566L95.84615384615385,81.7231750164341L96.92307692307692,84.38164627992576L98,82.3870349089246L99.07692307692308,85.48653978135499L100.15384615384616,87.38862462721721L101.23076923076923,85.03018169068105L102.3076923076923,82.3000196828877L103.38461538461539,84.7693428167364L104.46153846153847,87.69472535794276L105.53846153846153,86.48863358173614L106.61538461538461,89.90589226740244L107.6923076923077,90.73587869612295L108.76923076923077,87.65415890420228L109.84615384615384,91.39774893829738L110.92307692307692,95.1344918621816L112,93.51077864116522L113.07692307692308,92.83265596092728L114.15384615384615,95.07491184946491L115.23076923076923,93.37869993785311L116.30769230769232,92.80508705208936L117.38461538461539,94.48650219047876L118.46153846153847,97.78318289786134L119.53846153846153,93.50680219519535L120.61538461538463,94.74042022393516L121.6923076923077,93.2036236746426L122.76923076923077,98.80481582224263L123.84615384615384,96.63055248264409L124.92307692307693,96.3537018702L126,93.29823883672641L127.07692307692308,93.95755372226292L128.15384615384616,96.87846487894355L129.23076923076923,97.21311275906847L130.30769230769232,103.05039773962721L131.3846153846154,101.6128793499446L132.46153846153845,100.59668905121873L133.53846153846155,101.2195022869409L134.6153846153846,97.09640130277944L135.69230769230768,100.80663281009477L136.76923076923077,102.7800433317376L137.84615384615387,103.51513503601801L138.92307692307693,106.45343449612183L140,104.923056349554L141.07692307692307,105.79508609431221L142.15384615384613,107.56396371637128L143.23076923076923,106.94798845889109L144.3076923076923,105.16202284599505L145.3846153846154,103.27314620504544L146.46153846153848,109.08284721348544L147.53846153846155,111.07421229558835L148.6153846153846,111.26194906797596L149.69230769230768,112.19524340437472L150.76923076923077,112.03812240591286L151.84615384615384,111.98932856140915L152.9230769230769,112.27657278667917L154,109.64077863336885L155.0769230769231,104.30762023076188L156.15384615384616,102.05512949433785L157.23076923076923,105.20857452913243L158.3076923076923,103.6143842088362L159.3846153846154,100.96868068857079L160.46153846153845,105.32712565127197L161.53846153846152,106.35221863612112L162.61538461538464,111.55928239519146L163.6923076923077,103.6320088198799L164.76923076923077,107.30100274496054L165.84615384615384,110.14874817246529L166.92307692307693,109.51151264232331L168,109.43626107685922L169.07692307692307,111.39739881172342L170.15384615384613,113.5174234495766L171.23076923076925,112.99734141876871L172.30769230769232,115.47317793240492L173.3846153846154,116.27589848864949L174.46153846153845,116.41295607954916L175.53846153846155,118.45814959250288L176.6153846153846,115.41611456896302L177.69230769230768,116.82490819840228L178.76923076923075,120.20272468417046L179.84615384615387,116.77330555518627L180.92307692307693,116.71868441767258L182,116.1495597365173L183.07692307692307,121.43333026054205L184.15384615384616,118.98772850999852L185.23076923076923,115.76225328069698L186.3076923076923,118.80236676308574L187.38461538461536,119.87563636220665L188.46153846153848,120.71387689170211L189.53846153846155,117.55341964543709L190.6153846153846,113.71775149916783L191.6923076923077,120.35962822207912L192.76923076923077,117.88153938155834L193.84615384615384,125.61841856195738L194.9230769230769,127.88152352491215L196,126.98837853515991L197.0769230769231,129.00926305810853L198.15384615384616,126.34513988868541L199.23076923076923,126.66060375437823L200.30769230769232,127.9023098954831L201.3846153846154,126.72467823613663L202.46153846153845,125.6184086654589L203.53846153846152,119.94737109002835L204.6153846153846,124.15280108989364L205.6923076923077,126.54231649244477L206.76923076923077,124.43961668706064L207.84615384615387,126.4546998701262L208.92307692307693,131.1158311556174L210,129.8442697612017L211.07692307692307,129.82425789295388L212.15384615384613,127.33670537890909L213.23076923076923,125.01212450067021L214.3076923076923,127.3304694929377L215.3846153846154,128.09172912404208L216.46153846153848,129.81418979941964L217.53846153846155,132.7298487696465L218.6153846153846,133.58446890023515L219.69230769230768,132.8008483258648L220.76923076923077,131.91587965534706L221.84615384615384,134.53293857549244L222.9230769230769,132.58749962791572L224,133.5179693066431L225.0769230769231,131.25539891368928L226.15384615384616,133.01985959743197L227.23076923076923,136.96476944341435L228.3076923076923,137.024656135829L229.3846153846154,132.63033396342897L230.46153846153845,134.49403960377344L231.53846153846152,132.5464386316361L232.61538461538464,136.67763476736016L233.6923076923077,138.13794557419087L234.76923076923077,137.5099410239193L235.84615384615384,136.11522005140782L236.92307692307693,138.21487870564724L238,137.6282280926943L239.07692307692307,135.81254894074706L240.15384615384613,139.49748410571428L241.23076923076925,136.5381394890277L242.30769230769232,139.0404921982418L243.3846153846154,139.611891054601L244.46153846153845,140.39787384877036L245.53846153846155,139.1189959400792L246.6153846153846,139.56836409956279L247.69230769230768,140.09865880960263L248.76923076923075,139.70138016977995L249.84615384615387,141.94469604806886L250.92307692307693,143.94471041775483L252,140.43469164619887L253.07692307692307,137.80866190503068L254.15384615384616,136.6332580436536L255.23076923076923,137.02402730586405L256.3076923076923,139.00969381744363" style="fill: none;" fill="none"></path></g></g></g></g><g opacity="0.2"><g><g><g><path stroke="rgb(255, 112, 67)" stroke-width="2px" d="M21.53846153846154,22.468581888410796L22.615384615384617,24.762194580501994L23.692307692307693,18.593156364228992L24.76923076923077,14.78671699100071L25.846153846153847,24.261396620008696L26.923076923076923,23.757097482681274L28,23.787830034891776L29.07692307692308,22.96838961707222L30.153846153846157,23.444714705149345L31.230769230769234,21.538919236924915L32.30769230769231,29.324263360765247L33.38461538461539,26.057335297266654L34.46153846153847,21.103394058015613L35.53846153846153,29.09061580234104L36.61538461538462,21.02016743024191L37.69230769230769,27.65078335338169L38.769230769230774,25.14563828044468L39.84615384615385,23.852395508024443L40.92307692307693,27.61574800809225L42,26.962961249881324L43.07692307692308,29.36004137992859L44.15384615384615,26.903747744030436L45.23076923076923,28.509561909569644L46.30769230769231,26.172461536195545L47.38461538461539,30.73852660920885L48.46153846153846,30.764862060546875L49.53846153846154,30.91890205277338L50.61538461538461,33.50185105535721L51.69230769230769,33.123865418963966L52.76923076923077,37.15572399563261L53.84615384615385,36.38254155053034L54.92307692307692,37.82549794514975L56,37.52561095025805L57.07692307692307,35.364818996853316L58.15384615384616,39.22266790601944L59.23076923076923,38.643181880315154L60.307692307692314,38.94462495379978L61.38461538461539,40.307844109005416L62.46153846153847,43.12401628494263L63.53846153846154,51.35630861918133L64.61538461538461,49.51625747150847L65.6923076923077,45.77278033892315L66.76923076923077,49.8745681444804L67.84615384615384,55.578551054000854L68.92307692307693,56.29281470510694L70,55.06879385312399L71.07692307692307,54.536662128236564L72.15384615384615,56.96521748436823L73.23076923076924,57.23987714449566L74.3076923076923,60.87550152672663L75.38461538461539,67.71698967615765L76.46153846153845,61.755528807640076L77.53846153846155,68.53233359919655L78.61538461538461,67.88816421561772L79.6923076923077,66.70934037367505L80.76923076923076,66.68931175602808L81.84615384615385,60.90225546889835L82.92307692307692,77.39198495282068L84,68.91028387016722L85.07692307692307,73.55049255159166L86.15384615384616,74.46614460150403L87.23076923076923,72.93073120382097L88.3076923076923,74.02710645728642L89.38461538461537,76.3760247760349L90.46153846153847,71.98408725526598L91.53846153846153,75.90153279569414L92.61538461538461,80.28996324539185L93.69230769230768,77.34321603510115L94.76923076923077,81.35298301113977L95.84615384615385,86.19172728061676L96.92307692307692,88.36935317516327L98,79.39511785242293L99.07692307692308,90.13579709000057L100.15384615384616,90.24175189601051L101.23076923076923,81.49251728587681L102.3076923076923,78.20477667119768L103.38461538461539,88.47332751750946L104.46153846153847,92.08279916975235L105.53846153846153,84.67949591742622L106.61538461538461,95.03178029590184L107.6923076923077,91.98085833920373L108.76923076923077,83.03157921632132L109.84615384615384,97.01313398944008L110.92307692307692,100.73960624800789L112,91.07520880964067L113.07692307692308,91.81547194057042L114.15384615384615,98.43829568227133L115.23076923076923,90.83438207043542L116.30769230769232,91.94466772344377L117.38461538461539,97.00862489806282L118.46153846153847,102.7282039589352L119.53846153846153,87.09223114119636L120.61538461538463,96.59084726704492L121.6923076923077,90.89842885070378L122.76923076923077,107.2066040436427L123.84615384615384,93.36915747324628L124.92307692307693,95.93842595153386L126,88.71504428651598L127.07692307692308,94.94652605056763L128.15384615384616,101.2598316139645L129.23076923076923,97.71508457925584L130.30769230769232,111.80632521046532L131.3846153846154,99.4566017654207L132.46153846153845,99.07240360312993L133.53846153846155,102.15372214052414L134.6153846153846,90.91174982653725L135.69230769230768,106.37198007106781L136.76923076923077,105.74015911420187L137.84615384615387,104.6177725924386L138.92307692307693,110.86088368627762L140,102.62748912970227L141.07692307692307,107.10313071144952L142.15384615384613,110.21728014945984L143.23076923076923,106.02402557267084L144.3076923076923,102.483074426651L145.3846153846154,100.43983124362099L146.46153846153848,117.79739872614545L147.53846153846155,114.06125991874272L148.6153846153846,111.54355422655743L149.69230769230768,113.59518490897285L150.76923076923077,111.80244090822008L151.84615384615384,111.9161377946536L152.9230769230769,112.7074391245842L154,105.6870874034034L155.0769230769231,96.30788262685141L156.15384615384616,98.67639338970184L157.23076923076923,109.93874208132428L158.3076923076923,101.22309872839188L159.3846153846154,97.00012540817261L160.46153846153845,111.86479309532379L161.53846153846152,107.88985811339485L162.61538461538464,119.36987803379697L163.6923076923077,91.74109845691258L164.76923076923077,112.8044936325815L165.84615384615384,114.4203663137224L166.92307692307693,108.55565934711034L168,109.32338372866315L169.07692307692307,114.3391054140197L170.15384615384613,116.6974604063564L171.23076923076925,112.21721837255691L172.30769230769232,119.18693270285925L173.3846153846154,117.47997932301628L174.46153846153845,116.61854246589874L175.53846153846155,121.52593986193341L176.6153846153846,110.85306203365326L177.69230769230768,118.93809864256119L178.76923076923075,125.26944941282272L179.84615384615387,111.62917686171001L180.92307692307693,116.63675271140205L182,115.29587271478441L183.07692307692307,129.35898604657916L184.15384615384616,115.31932588418326L185.23076923076923,110.92404043674469L186.3076923076923,123.36253698666891L187.38461538461536,121.48554076088799L188.46153846153848,121.9712376859453L189.53846153846155,112.81273377603954L190.6153846153846,107.96424927976396L191.6923076923077,130.32244330644608L192.76923076923077,114.16440612077713L193.84615384615384,137.22373733255597L194.9230769230769,131.27618096934427L196,125.64866105053162L197.0769230769231,132.0405898425314L198.15384615384616,122.34895513455075L199.23076923076923,127.13379955291748L200.30769230769232,129.7648691071404L201.3846153846154,124.95823074711693L202.46153846153845,123.9590043094423L203.53846153846152,111.44081472688252L204.6153846153846,130.4609460896916L205.6923076923077,130.12658959627151L206.76923076923077,121.28556697898442L207.84615384615387,129.47732464472455L208.92307692307693,138.10752808385425L210,127.93692766957814L211.07692307692307,129.7942400905821L212.15384615384613,123.6053766078419L213.23076923076923,121.52525318331188L214.3076923076923,130.80798698133893L215.3846153846154,129.2336185706986L216.46153846153848,132.397880812486L217.53846153846155,137.10333722498683L218.6153846153846,134.8663990961181L219.69230769230768,131.62541746430927L220.76923076923077,130.58842664957047L221.84615384615384,138.45852695571054L222.9230769230769,129.6693412065506L224,134.91367382473416L225.0769230769231,127.86154332425859L226.15384615384616,135.66655062304605L227.23076923076923,142.8821342123879L228.3076923076923,137.114486174451L229.3846153846154,126.03885070482892L230.46153846153845,137.28959806429017L231.53846153846152,129.62503717343014L232.61538461538464,142.87442897094618L233.6923076923077,140.32841178443698L234.76923076923077,136.56793419851195L235.84615384615384,134.02313859264055L236.92307692307693,141.36436668700642L238,136.74825217326483L239.07692307692307,133.0890302128262L240.15384615384613,145.0248868531651L241.23076923076925,132.09912256399792L242.30769230769232,142.7940212620629L243.3846153846154,140.46898933913974L244.46153846153845,141.57684804002443L245.53846153846155,137.20067907704245L246.6153846153846,140.24241633878816L247.69230769230768,140.8941008746624L248.76923076923075,139.10546221004594L249.84615384615387,145.30966986550223L250.92307692307693,146.9447319722838L252,135.1696634888649L253.07692307692307,133.86961729327837L254.15384615384616,134.870152251588L255.23076923076923,137.61018119917978L256.3076923076923,141.988193584813" style="fill: none;" fill="none"></path></g></g></g></g></g></g><g transform="translate(50, 178)" clip-path="url(#clip_1)"><clipPath id="clip_1"><rect width="280" height="21"></rect></clipPath><g><g><line x1="0" y1="0" x2="0" y2="5" style="visibility: inherit;" fill="rgb(0, 0, 0)" stroke="rgb(204, 204, 204)" stroke-width="1px"></line><line x1="21.53846153846154" y1="0" x2="21.53846153846154" y2="5" style="visibility: inherit;" fill="rgb(0, 0, 0)" stroke="rgb(204, 204, 204)" stroke-width="1px"></line><line x1="43.07692307692308" y1="0" x2="43.07692307692308" y2="5" style="visibility: inherit;" fill="rgb(0, 0, 0)" stroke="rgb(204, 204, 204)" stroke-width="1px"></line><line x1="64.61538461538461" y1="0" x2="64.61538461538461" y2="5" style="visibility: inherit;" fill="rgb(0, 0, 0)" stroke="rgb(204, 204, 204)" stroke-width="1px"></line><line x1="86.15384615384616" y1="0" x2="86.15384615384616" y2="5" style="visibility: inherit;" fill="rgb(0, 0, 0)" stroke="rgb(204, 204, 204)" stroke-width="1px"></line><line x1="107.6923076923077" y1="0" x2="107.6923076923077" y2="5" style="visibility: inherit;" fill="rgb(0, 0, 0)" stroke="rgb(204, 204, 204)" stroke-width="1px"></line><line x1="129.23076923076923" y1="0" x2="129.23076923076923" y2="5" style="visibility: inherit;" fill="rgb(0, 0, 0)" stroke="rgb(204, 204, 204)" stroke-width="1px"></line><line x1="150.76923076923077" y1="0" x2="150.76923076923077" y2="5" style="visibility: inherit;" fill="rgb(0, 0, 0)" stroke="rgb(204, 204, 204)" stroke-width="1px"></line><line x1="172.30769230769232" y1="0" x2="172.30769230769232" y2="5" style="visibility: inherit;" fill="rgb(0, 0, 0)" stroke="rgb(204, 204, 204)" stroke-width="1px"></line><line x1="193.84615384615384" y1="0" x2="193.84615384615384" y2="5" style="visibility: inherit;" fill="rgb(0, 0, 0)" stroke="rgb(204, 204, 204)" stroke-width="1px"></line><line x1="215.3846153846154" y1="0" x2="215.3846153846154" y2="5" style="visibility: inherit;" fill="rgb(0, 0, 0)" stroke="rgb(204, 204, 204)" stroke-width="1px"></line><line x1="236.92307692307693" y1="0" x2="236.92307692307693" y2="5" style="visibility: inherit;" fill="rgb(0, 0, 0)" stroke="rgb(204, 204, 204)" stroke-width="1px"></line><line x1="258.46153846153845" y1="0" x2="258.46153846153845" y2="5" style="visibility: inherit;" fill="rgb(0, 0, 0)" stroke="rgb(204, 204, 204)" stroke-width="1px"></line><line x1="280" y1="0" x2="280" y2="5" style="visibility: inherit;" fill="rgb(0, 0, 0)" stroke="rgb(204, 204, 204)" stroke-width="1px"></line></g><g transform="translate(0, 8)"><text x="0" y="0" dx="0em" dy="0.95em" style="text-anchor: middle; visibility: hidden; font-family: Roboto, sans-serif; font-size: 12px; font-weight: 200;" fill="rgb(50, 49, 63)" stroke="none" stroke-width="1px">-20</text><text x="21.53846153846154" y="0" dx="0em" dy="0.95em" style="text-anchor: middle; visibility: inherit; font-family: Roboto, sans-serif; font-size: 12px; font-weight: 200;" fill="rgb(50, 49, 63)" stroke="none" stroke-width="1px">0</text><text x="43.07692307692308" y="0" dx="0em" dy="0.95em" style="text-anchor: middle; visibility: hidden; font-family: Roboto, sans-serif; font-size: 12px; font-weight: 200;" fill="rgb(50, 49, 63)" stroke="none" stroke-width="1px">20</text><text x="64.61538461538461" y="0" dx="0em" dy="0.95em" style="text-anchor: middle; visibility: inherit; font-family: Roboto, sans-serif; font-size: 12px; font-weight: 200;" fill="rgb(50, 49, 63)" stroke="none" stroke-width="1px">40</text><text x="86.15384615384616" y="0" dx="0em" dy="0.95em" style="text-anchor: middle; visibility: hidden; font-family: Roboto, sans-serif; font-size: 12px; font-weight: 200;" fill="rgb(50, 49, 63)" stroke="none" stroke-width="1px">60</text><text x="107.6923076923077" y="0" dx="0em" dy="0.95em" style="text-anchor: middle; visibility: inherit; font-family: Roboto, sans-serif; font-size: 12px; font-weight: 200;" fill="rgb(50, 49, 63)" stroke="none" stroke-width="1px">80</text><text x="129.23076923076923" y="0" dx="0em" dy="0.95em" style="text-anchor: middle; visibility: hidden; font-family: Roboto, sans-serif; font-size: 12px; font-weight: 200;" fill="rgb(50, 49, 63)" stroke="none" stroke-width="1px">100</text><text x="150.76923076923077" y="0" dx="0em" dy="0.95em" style="text-anchor: middle; visibility: inherit; font-family: Roboto, sans-serif; font-size: 12px; font-weight: 200;" fill="rgb(50, 49, 63)" stroke="none" stroke-width="1px">120</text><text x="172.30769230769232" y="0" dx="0em" dy="0.95em" style="text-anchor: middle; visibility: hidden; font-family: Roboto, sans-serif; font-size: 12px; font-weight: 200;" fill="rgb(50, 49, 63)" stroke="none" stroke-width="1px">140</text><text x="193.84615384615384" y="0" dx="0em" dy="0.95em" style="text-anchor: middle; visibility: inherit; font-family: Roboto, sans-serif; font-size: 12px; font-weight: 200;" fill="rgb(50, 49, 63)" stroke="none" stroke-width="1px">160</text><text x="215.3846153846154" y="0" dx="0em" dy="0.95em" style="text-anchor: middle; visibility: hidden; font-family: Roboto, sans-serif; font-size: 12px; font-weight: 200;" fill="rgb(50, 49, 63)" stroke="none" stroke-width="1px">180</text><text x="236.92307692307693" y="0" dx="0em" dy="0.95em" style="text-anchor: middle; visibility: inherit; font-family: Roboto, sans-serif; font-size: 12px; font-weight: 200;" fill="rgb(50, 49, 63)" stroke="none" stroke-width="1px">200</text><text x="258.46153846153845" y="0" dx="0em" dy="0.95em" style="text-anchor: middle; visibility: hidden; font-family: Roboto, sans-serif; font-size: 12px; font-weight: 200;" fill="rgb(50, 49, 63)" stroke="none" stroke-width="1px">220</text><text x="280" y="0" dx="0em" dy="0.95em" style="text-anchor: middle; visibility: hidden; font-family: Roboto, sans-serif; font-size: 12px; font-weight: 200;" fill="rgb(50, 49, 63)" stroke="none" stroke-width="1px">240</text></g><line x1="0" y1="0" x2="280" y2="0" fill="rgb(0, 0, 0)" stroke="rgb(204, 204, 204)" stroke-width="1px"></line></g></g></g></g></svg>